<svg width="76" height="19" viewBox="0 0 76 19" fill="none" xmlns="http://www.w3.org/2000/svg">
<path d="M75.701 18.1102L0.775269 17.6956C1.2174 14.8302 2.78655 12.1808 5.17276 10.8967C8.12358 9.3074 11.6969 9.80093 15.0147 10.2339C18.3325 10.6668 21.9952 10.9185 24.7307 8.98002C26.107 8.00455 27.0846 6.57697 28.2019 5.30797C31.3945 1.6778 36.4115 -0.789387 41.0459 0.524158C43.3782 1.18516 45.3639 2.71117 47.5728 3.71292C49.8941 4.76154 52.4353 5.22037 54.9737 5.04919C57.5907 4.86879 60.1984 4.02071 62.7915 4.42203C66.0784 4.93337 68.7604 7.38051 70.6952 10.106C72.5292 12.6864 73.8352 15.1869 75.701 18.1102Z" fill="#F3F5FD"/>
</svg>
