<svg width="84" height="26" viewBox="0 0 84 26" fill="none" xmlns="http://www.w3.org/2000/svg">
<path d="M83.622 25.3407H1.60968C1.20039 24.5644 0.973113 23.704 0.945288 22.8255C0.917463 21.9469 1.08983 21.0737 1.44916 20.2727C1.80849 19.4717 2.34522 18.7643 3.01816 18.2048C3.69109 17.6454 4.48233 17.2487 5.33114 17.0452C8.00872 16.4051 11.0347 17.7182 13.4757 16.4399C15.3694 15.4466 16.2444 13.2052 16.6476 11.0948C17.0508 8.98442 17.1662 6.75554 18.1832 4.86607C19.8929 1.69334 23.9517 0.278235 27.4561 1.03189C30.9605 1.78554 33.8715 4.36007 35.7877 7.41075C36.576 8.66505 37.291 10.0833 38.5909 10.7826C40.0906 11.5901 41.9577 11.2053 43.4986 10.4824C45.0394 9.75945 46.4366 8.7194 48.0526 8.18177C49.6974 7.67213 51.4596 7.69658 53.0898 8.25167C54.72 8.80677 56.1357 9.86437 57.1363 11.2748C58.521 13.3139 59.1007 16.1214 61.2747 17.2639C62.1978 17.6848 63.2042 17.8877 64.2171 17.8572C68.2405 17.9552 72.378 17.0109 76.2286 18.1908C77.9205 18.7359 79.4662 19.6635 80.7476 20.9028C82.029 22.142 83.0122 23.66 83.622 25.3407Z" fill="#F3F5FD"/>
</svg>
