<svg width="248" height="193" viewBox="0 0 248 193" fill="none" xmlns="http://www.w3.org/2000/svg">
<g clip-path="url(#clip0_164_1579)">
<path d="M200.311 0H168.64V41.233H200.311V0Z" fill="#F4F4F4"/>
<path d="M200.311 41.2329H201.338V-8.7738e-05H200.311V41.2329Z" fill="#F4F4F4"/>
<path opacity="0.05" d="M200.311 41.2329H201.338V-8.7738e-05H200.311V41.2329Z" fill="#292A2E"/>
<path opacity="0.05" d="M194.542 7.51099H174.409V33.7218H194.542V7.51099Z" fill="#292A2E"/>
<path opacity="0.03" d="M194.542 7.51099H193.492V33.7218H194.542V7.51099Z" fill="#292A2E"/>
<path d="M226.213 51.3728H200.311V77.5182H226.213V51.3728Z" fill="#F4F4F4"/>
<path opacity="0.05" d="M221.495 56.1355H205.029V72.7556H221.495V56.1355Z" fill="#292A2E"/>
<path d="M226.213 77.5181H227.24V51.3727H226.213V77.5181Z" fill="#F4F4F4"/>
<path opacity="0.05" d="M226.213 77.5181H227.24V51.3727H226.213V77.5181Z" fill="#292A2E"/>
<path opacity="0.03" d="M221.495 56.1355H220.445V72.7556H221.495V56.1355Z" fill="#292A2E"/>
<path d="M99.5392 13.2192H6.35071V106.428H99.5392V13.2192Z" fill="#F4F4F4"/>
<path d="M100.607 13.2192H99.5392V106.428H100.607V13.2192Z" fill="#F4F4F4"/>
<path opacity="0.05" d="M100.607 13.2192H99.5392V106.428H100.607V13.2192Z" fill="#292A2E"/>
<path opacity="0.05" d="M76.9639 77.4478V53.0613H56.9922V67.2294H26.0558V92.3156H12.9074V106.428H26.0558H28.5889H95.0565V77.4478H76.9639Z" fill="#292A2E"/>
<path opacity="0.34" d="M74.0993 55.709H59.5556V58.3567H74.0993V55.709Z" fill="#FFFFFA"/>
<path opacity="0.34" d="M74.0993 61.196H59.5556V63.8437H74.0993V61.196Z" fill="#FFFFFA"/>
<path opacity="0.34" d="M74.0993 66.6829H59.5556V69.3306H74.0993V66.6829Z" fill="#FFFFFA"/>
<path opacity="0.34" d="M92.4773 80.0178H89.7968V82.6655H92.4773V80.0178Z" fill="#FFFFFA"/>
<path opacity="0.34" d="M92.4773 85.5046H89.7968V88.1523H92.4773V85.5046Z" fill="#FFFFFA"/>
<path opacity="0.34" d="M92.4773 90.9917H89.7968V93.6394H92.4773V90.9917Z" fill="#FFFFFA"/>
<path opacity="0.34" d="M87.5184 80.0178H84.8378V82.6655H87.5184V80.0178Z" fill="#FFFFFA"/>
<path opacity="0.34" d="M87.5184 85.5046H84.8378V88.1523H87.5184V85.5046Z" fill="#FFFFFA"/>
<path opacity="0.34" d="M87.5184 90.9917H84.8378V93.6394H87.5184V90.9917Z" fill="#FFFFFA"/>
<path opacity="0.34" d="M82.6933 80.0178H80.0128V82.6655H82.6933V80.0178Z" fill="#FFFFFA"/>
<path opacity="0.34" d="M82.6933 85.5046H80.0128V88.1523H82.6933V85.5046Z" fill="#FFFFFA"/>
<path opacity="0.34" d="M82.6933 90.9917H80.0128V93.6394H82.6933V90.9917Z" fill="#FFFFFA"/>
<path d="M99.5392 59.3007H80.7881V13.2192H79.2374V59.3007H28.5889V13.2192H27.038V59.3007H6.35071V60.8519H27.038V106.428H28.5889V60.8519H79.2374V106.428H80.7881V60.8519H99.5392V59.3007Z" fill="white"/>
<path d="M103.251 106.316H2.6383V109.415H103.251V106.316Z" fill="#F4F4F4"/>
<path opacity="0.1" d="M103.251 106.316H2.6383V109.415H103.251V106.316Z" fill="#292A2E"/>
<path opacity="0.1" d="M104.704 106.316H103.252V109.415H104.704V106.316Z" fill="#292A2E"/>
<path opacity="0.1" d="M104.704 106.316H103.252V109.415H104.704V106.316Z" fill="#292A2E"/>
<path opacity="0.05" d="M189.447 188.945H184.124V192.501H189.447V188.945Z" fill="#292A2E"/>
<path opacity="0.05" d="M222.865 188.945H217.542V192.501H222.865V188.945Z" fill="#292A2E"/>
<path d="M227.745 134.768H179.244V188.945H227.745V134.768Z" fill="#F4F4F4"/>
<path opacity="0.03" d="M227.745 134.768H179.244V188.945H227.745V134.768Z" fill="#292A2E"/>
<path d="M214.864 134.768H166.363V188.945H214.864V134.768Z" fill="#F4F4F4"/>
<path opacity="0.05" d="M176.566 188.945H171.243V192.501H176.566V188.945Z" fill="#292A2E"/>
<path opacity="0.05" d="M209.984 188.945H204.661V192.501H209.984V188.945Z" fill="#292A2E"/>
<path opacity="0.7" d="M212.255 138.117H168.972V151.858H212.255V138.117Z" fill="white"/>
<path opacity="0.7" d="M212.255 155.222H168.972V168.963H212.255V155.222Z" fill="white"/>
<path opacity="0.7" d="M212.255 172.325H168.972V186.066H212.255V172.325Z" fill="white"/>
<path opacity="0.05" d="M190.613 146.91C191.675 146.91 192.535 146.05 192.535 144.988C192.535 143.926 191.675 143.065 190.613 143.065C189.552 143.065 188.691 143.926 188.691 144.988C188.691 146.05 189.552 146.91 190.613 146.91Z" fill="#292A2E"/>
<path opacity="0.05" d="M190.613 164.015C191.675 164.015 192.535 163.154 192.535 162.092C192.535 161.03 191.675 160.169 190.613 160.169C189.552 160.169 188.691 161.03 188.691 162.092C188.691 163.154 189.552 164.015 190.613 164.015Z" fill="#292A2E"/>
<path opacity="0.05" d="M190.613 181.119C191.675 181.119 192.535 180.258 192.535 179.196C192.535 178.134 191.675 177.273 190.613 177.273C189.552 177.273 188.691 178.134 188.691 179.196C188.691 180.258 189.552 181.119 190.613 181.119Z" fill="#292A2E"/>
<path d="M179.057 20.4419H115.82C110.589 20.4419 106.348 24.6837 106.348 29.9162V178.605C106.348 183.837 110.589 188.079 115.82 188.079H179.057C184.289 188.079 188.53 183.837 188.53 178.605V29.9162C188.53 24.6837 184.289 20.4419 179.057 20.4419Z" fill="#292A2E"/>
<path d="M179.028 23.4004H115.85C112.258 23.4004 109.346 26.3131 109.346 29.9061V178.394C109.346 181.987 112.258 184.9 115.85 184.9H179.028C182.62 184.9 185.532 181.987 185.532 178.394V29.9061C185.532 26.3131 182.62 23.4004 179.028 23.4004Z" fill="white"/>
<path d="M131.835 22.177H163.042V25.4068C163.042 25.8655 162.952 26.3198 162.777 26.7437C162.601 27.1676 162.344 27.5528 162.02 27.8773C161.696 28.2017 161.311 28.4591 160.887 28.6347C160.463 28.8103 160.009 28.9007 159.55 28.9007H135.327C134.401 28.9007 133.513 28.5327 132.858 27.8777C132.203 27.2227 131.835 26.3343 131.835 25.408V22.177Z" fill="#292A2E"/>
<path opacity="0.8" d="M165.509 126.158H129.368C127.239 126.158 125.513 127.885 125.513 130.015V140.371C125.513 142.501 127.239 144.227 129.368 144.227H165.509C167.639 144.227 169.365 142.501 169.365 140.371V130.015C169.365 127.885 167.639 126.158 165.509 126.158Z" fill="#96B9D9"/>
<path d="M169.364 140.371V142.145C169.364 142.652 169.264 143.153 169.07 143.621C168.877 144.089 168.593 144.514 168.235 144.872C167.877 145.23 167.452 145.514 166.984 145.708C166.516 145.902 166.015 146.002 165.508 146.002H129.368C128.862 146.002 128.36 145.902 127.893 145.708C127.425 145.514 127 145.23 126.642 144.872C126.284 144.514 126 144.089 125.806 143.621C125.612 143.153 125.512 142.652 125.513 142.145V140.371C125.513 141.393 125.919 142.374 126.642 143.097C127.365 143.82 128.345 144.227 129.368 144.227H165.508C166.015 144.227 166.516 144.127 166.984 143.933C167.451 143.739 167.876 143.455 168.235 143.097C168.593 142.739 168.877 142.314 169.07 141.846C169.264 141.378 169.364 140.877 169.364 140.371Z" fill="#367CFF"/>
<path d="M145.029 140.531C144.878 140.531 144.732 140.477 144.617 140.379L140.48 136.833C140.352 136.723 140.273 136.568 140.26 136.4C140.247 136.232 140.301 136.066 140.411 135.939C140.52 135.811 140.676 135.732 140.843 135.719C141.011 135.706 141.177 135.76 141.305 135.869L144.975 139.016L153.517 129.669C153.63 129.545 153.788 129.471 153.956 129.463C154.124 129.455 154.288 129.515 154.412 129.628C154.536 129.742 154.61 129.9 154.618 130.068C154.625 130.236 154.566 130.4 154.452 130.524L145.497 140.324C145.438 140.389 145.366 140.441 145.285 140.477C145.204 140.512 145.117 140.531 145.029 140.531Z" fill="white"/>
<g opacity="0.5">
<path d="M175.254 79.2255C175.254 82.0975 172.464 84.4935 171.622 87.0844C170.75 89.7717 171.57 93.3437 169.943 95.5794C168.3 97.8375 164.638 98.1543 162.381 99.7976C160.146 101.425 158.722 104.819 156.036 105.692C153.445 106.533 150.31 104.652 147.439 104.652C144.567 104.652 141.432 106.534 138.841 105.692C136.155 104.819 134.732 101.425 132.497 99.7976C130.239 98.1543 126.577 97.8375 124.934 95.5794C123.308 93.3437 124.127 89.7704 123.255 87.0844C122.414 84.493 119.623 82.0968 119.623 79.2255C119.623 76.3542 122.414 73.9572 123.255 71.3666C124.127 68.6806 123.308 65.1073 124.934 62.8716C126.577 60.6135 130.239 60.2966 132.497 58.6533C134.732 57.0263 136.156 53.6315 138.841 52.7594C141.432 51.918 144.567 53.7988 147.439 53.7988C150.31 53.7988 153.446 51.9172 156.036 52.7594C158.723 53.6315 160.146 57.026 162.381 58.6533C164.638 60.2966 168.3 60.6135 169.943 62.8716C171.57 65.1073 170.75 68.6803 171.622 71.3663C172.464 73.9572 175.254 76.3534 175.254 79.2255Z" fill="#A5D996"/>
</g>
<path d="M20.3861 187.807L19.8382 191.28C19.7788 191.657 19.5881 192 19.2998 192.248C19.0116 192.497 18.6444 192.636 18.2637 192.639L4.30549 192.775C4.10503 192.777 3.9099 192.71 3.75216 192.587C3.59442 192.463 3.48345 192.289 3.43746 192.094C3.39147 191.899 3.4132 191.694 3.49909 191.513C3.58498 191.332 3.72992 191.185 3.9101 191.097L12.2899 187.013L20.3861 187.807Z" fill="#E98862"/>
<path d="M225.934 159.754C225.867 159.754 225.803 159.727 225.755 159.68C225.398 159.323 224.816 152.769 223.248 133.258C222.607 125.274 222.001 117.733 221.558 113.15C221.527 112.823 221.4 112.785 221.358 112.772C220.753 112.592 218.912 114.042 217.884 115.313C217.842 115.365 217.78 115.399 217.714 115.406C217.647 115.413 217.58 115.393 217.527 115.351C217.475 115.309 217.442 115.247 217.435 115.18C217.428 115.114 217.447 115.047 217.49 114.994C218.169 114.154 220.384 111.952 221.504 112.286C221.73 112.354 222.011 112.551 222.063 113.102C222.506 117.688 223.112 125.231 223.753 133.217C224.706 145.074 225.786 158.506 226.14 159.352C226.167 159.39 226.184 159.435 226.187 159.481C226.191 159.528 226.181 159.575 226.16 159.616C226.139 159.658 226.106 159.692 226.067 159.717C226.027 159.741 225.981 159.754 225.934 159.754Z" fill="#494949"/>
<path d="M220.907 121.559C225.113 118.187 226.507 112.939 224.021 109.836C221.534 106.734 216.109 106.952 211.903 110.325C207.698 113.697 206.304 118.945 208.79 122.048C211.276 125.15 216.701 124.931 220.907 121.559Z" fill="#0CBC8B"/>
<path opacity="0.2" d="M220.907 121.559C225.113 118.187 226.507 112.939 224.021 109.836C221.534 106.734 216.109 106.952 211.903 110.325C207.698 113.697 206.304 118.945 208.79 122.048C211.276 125.15 216.701 124.931 220.907 121.559Z" fill="white"/>
<path d="M209.969 122.837C209.945 122.837 209.921 122.83 209.901 122.817C209.881 122.804 209.864 122.786 209.854 122.764C209.844 122.742 209.84 122.718 209.843 122.694C209.846 122.67 209.856 122.647 209.872 122.629L221.858 108.172C221.868 108.159 221.881 108.148 221.896 108.14C221.911 108.133 221.927 108.128 221.944 108.126C221.96 108.125 221.977 108.126 221.993 108.131C222.009 108.136 222.024 108.144 222.036 108.155C222.049 108.166 222.06 108.179 222.068 108.193C222.075 108.208 222.08 108.224 222.082 108.241C222.083 108.257 222.081 108.274 222.077 108.29C222.072 108.306 222.064 108.321 222.053 108.334L210.066 122.791C210.054 122.805 210.039 122.817 210.023 122.825C210.006 122.833 209.988 122.837 209.969 122.837Z" fill="white"/>
<path d="M228.549 156.654C228.52 156.655 228.492 156.65 228.465 156.64C228.402 156.618 228.35 156.572 228.321 156.511C228.291 156.451 228.287 156.381 228.309 156.318L232.812 143.367C232.944 142.986 233.17 142.645 233.469 142.374C233.767 142.104 234.129 141.912 234.521 141.818C234.912 141.723 235.321 141.728 235.711 141.833C236.1 141.938 236.456 142.138 236.748 142.416L239.128 144.691C239.153 144.714 239.173 144.741 239.187 144.772C239.201 144.803 239.209 144.836 239.21 144.869C239.211 144.903 239.206 144.937 239.194 144.968C239.182 145 239.163 145.029 239.14 145.053C239.117 145.078 239.089 145.097 239.058 145.111C239.027 145.124 238.993 145.131 238.96 145.132C238.926 145.132 238.892 145.125 238.861 145.113C238.83 145.1 238.802 145.081 238.778 145.057L236.397 142.783C236.167 142.563 235.886 142.405 235.579 142.322C235.271 142.24 234.949 142.236 234.639 142.31C234.33 142.385 234.045 142.536 233.809 142.749C233.573 142.963 233.395 143.232 233.29 143.533L228.788 156.484C228.771 156.534 228.738 156.577 228.696 156.608C228.653 156.638 228.601 156.654 228.549 156.654Z" fill="#494949"/>
<path d="M245.779 151.861C248.896 149.393 248.71 143.966 245.365 139.739C242.02 135.511 236.781 134.085 233.664 136.552C230.547 139.02 230.732 144.447 234.078 148.675C237.423 152.902 242.662 154.329 245.779 151.861Z" fill="#0CBC8B"/>
<path d="M223.889 158.928C223.832 158.928 223.777 158.908 223.732 158.873C223.687 158.838 223.656 158.788 223.643 158.733L216.087 127.134C216.035 126.919 215.925 126.722 215.769 126.565C215.613 126.408 215.416 126.297 215.201 126.245C214.986 126.193 214.76 126.201 214.549 126.268C214.338 126.335 214.15 126.46 214.005 126.627L211.676 129.317C211.655 129.343 211.628 129.363 211.598 129.378C211.569 129.393 211.536 129.402 211.503 129.404C211.47 129.407 211.436 129.403 211.405 129.392C211.373 129.382 211.344 129.365 211.319 129.343C211.294 129.321 211.273 129.295 211.258 129.265C211.243 129.235 211.234 129.203 211.232 129.17C211.229 129.136 211.234 129.103 211.244 129.071C211.254 129.04 211.271 129.011 211.293 128.985L213.622 126.293C213.828 126.055 214.096 125.879 214.395 125.783C214.695 125.687 215.016 125.676 215.321 125.751C215.627 125.826 215.906 125.983 216.128 126.206C216.351 126.429 216.507 126.709 216.58 127.015L224.136 158.615C224.151 158.68 224.14 158.749 224.105 158.806C224.07 158.864 224.013 158.904 223.948 158.92C223.929 158.925 223.909 158.927 223.889 158.928Z" fill="#494949"/>
<path d="M221.102 136.339C222.021 131.027 219.59 126.171 215.673 125.493C211.756 124.816 207.836 128.573 206.917 133.886C205.999 139.198 208.43 144.054 212.347 144.732C216.264 145.409 220.184 141.652 221.102 136.339Z" fill="#0CBC8B"/>
<path d="M225.935 159.754C225.924 159.754 225.914 159.753 225.904 159.752C225.837 159.744 225.776 159.709 225.735 159.656C225.693 159.603 225.675 159.536 225.683 159.47L230.508 120.287C230.56 119.86 230.735 119.457 231.011 119.128C231.286 118.798 231.652 118.554 232.062 118.427C232.473 118.3 232.912 118.294 233.326 118.41C233.74 118.526 234.112 118.76 234.396 119.082L239.911 125.33C239.955 125.38 239.978 125.446 239.974 125.513C239.97 125.58 239.939 125.643 239.889 125.688C239.864 125.71 239.835 125.726 239.803 125.737C239.772 125.748 239.738 125.753 239.705 125.751C239.638 125.746 239.575 125.716 239.531 125.665L234.016 119.418C233.796 119.169 233.509 118.988 233.189 118.899C232.869 118.809 232.53 118.813 232.212 118.912C231.895 119.01 231.613 119.198 231.4 119.453C231.186 119.708 231.051 120.019 231.011 120.349L226.186 159.531C226.179 159.593 226.149 159.649 226.103 159.69C226.056 159.731 225.997 159.754 225.935 159.754Z" fill="#494949"/>
<path d="M245.567 128.801C247.491 125.322 245.227 120.386 240.51 117.776C235.794 115.166 230.41 115.871 228.486 119.351C226.562 122.83 228.826 127.766 233.543 130.376C238.259 132.985 243.643 132.28 245.567 128.801Z" fill="#0CBC8B"/>
<path opacity="0.2" d="M245.779 151.861C248.896 149.393 248.71 143.966 245.365 139.739C242.02 135.511 236.781 134.085 233.664 136.552C230.547 139.02 230.732 144.447 234.078 148.675C237.423 152.902 242.662 154.329 245.779 151.861Z" fill="white"/>
<path opacity="0.5" d="M221.102 136.339C222.021 131.027 219.59 126.171 215.673 125.493C211.756 124.816 207.836 128.573 206.917 133.886C205.999 139.198 208.43 144.054 212.347 144.732C216.264 145.409 220.184 141.652 221.102 136.339Z" fill="white"/>
<path opacity="0.5" d="M245.567 128.801C247.491 125.322 245.227 120.386 240.51 117.776C235.794 115.166 230.41 115.871 228.486 119.351C226.562 122.83 228.826 127.766 233.543 130.376C238.259 132.985 243.643 132.28 245.567 128.801Z" fill="white"/>
<path d="M232.106 193H219.763L217.718 153.501H234.151L232.106 193Z" fill="#292A2E"/>
<path opacity="0.3" d="M232.106 193H219.763L217.718 153.501H234.151L232.106 193Z" fill="white"/>
<path d="M245.778 151.986C245.759 151.986 245.74 151.982 245.723 151.974C245.706 151.966 245.691 151.953 245.679 151.938L233.564 136.63C233.553 136.617 233.546 136.602 233.541 136.586C233.537 136.57 233.535 136.553 233.537 136.536C233.539 136.52 233.544 136.504 233.552 136.489C233.56 136.475 233.571 136.462 233.584 136.451C233.597 136.441 233.612 136.433 233.628 136.429C233.644 136.424 233.661 136.423 233.678 136.425C233.694 136.427 233.71 136.432 233.725 136.44C233.739 136.448 233.752 136.459 233.762 136.472L245.878 151.781C245.893 151.8 245.902 151.822 245.904 151.846C245.907 151.87 245.903 151.893 245.892 151.915C245.882 151.936 245.866 151.954 245.846 151.967C245.826 151.98 245.802 151.986 245.778 151.986Z" fill="white"/>
<path d="M244.761 130.027C244.734 130.027 244.708 130.018 244.687 130.002L229.184 118.679C229.17 118.67 229.159 118.657 229.15 118.643C229.141 118.629 229.136 118.613 229.133 118.597C229.13 118.58 229.131 118.563 229.135 118.547C229.139 118.531 229.146 118.516 229.156 118.502C229.166 118.489 229.178 118.477 229.192 118.469C229.207 118.46 229.222 118.454 229.239 118.452C229.255 118.449 229.272 118.45 229.288 118.454C229.304 118.458 229.32 118.465 229.333 118.475L244.836 129.799C244.857 129.815 244.873 129.837 244.881 129.862C244.889 129.887 244.889 129.915 244.88 129.94C244.872 129.965 244.856 129.987 244.835 130.002C244.814 130.018 244.788 130.027 244.761 130.027Z" fill="white"/>
<path d="M211.717 144.566C211.706 144.566 211.695 144.565 211.684 144.562C211.652 144.553 211.624 144.532 211.607 144.503C211.59 144.474 211.586 144.439 211.594 144.407L216.529 125.912C216.538 125.88 216.56 125.853 216.589 125.836C216.617 125.819 216.652 125.814 216.684 125.822C216.717 125.831 216.744 125.852 216.761 125.881C216.778 125.91 216.783 125.945 216.774 125.977L211.84 144.472C211.833 144.499 211.817 144.523 211.795 144.54C211.772 144.557 211.745 144.566 211.717 144.566Z" fill="white"/>
<path d="M36.7137 170.104C36.7137 170.104 36.6194 190.592 51.4429 192.489L65.3985 179.714L74.0509 162.452L41.6652 166.026L36.7137 170.104Z" fill="#262626"/>
<path d="M36.3147 168.988L36.2704 168.999C36.2704 168.999 36.1261 168.13 36.3147 168.988Z" fill="#333333"/>
<path d="M93.4627 109.504C93.4612 109.495 93.4528 109.489 93.4485 109.481L93.6259 109.221C93.7492 109.047 93.8088 108.836 93.7945 108.624C93.7803 108.411 93.693 108.21 93.5476 108.054C93.4544 107.959 93.3411 107.885 93.2159 107.838C93.0907 107.792 92.9567 107.773 92.8236 107.785C92.6904 107.796 92.5615 107.837 92.4461 107.904C92.3307 107.972 92.2317 108.064 92.1561 108.174L91.745 108.774C91.7422 108.772 91.7422 108.767 91.7389 108.765C91.7356 108.763 91.7293 108.765 91.725 108.762C91.8005 108.572 91.8091 108.362 91.7496 108.166C91.69 107.971 91.5658 107.801 91.3973 107.686C90.9814 107.359 90.407 107.665 90.1414 108.053L87.691 111.501L87.9191 110.304C87.9678 110.072 87.9266 109.829 87.8039 109.626C87.6812 109.423 87.486 109.274 87.2578 109.209C87.1388 109.18 87.0151 109.175 86.8942 109.195C86.7733 109.215 86.6578 109.26 86.5547 109.326C86.4516 109.392 86.3631 109.479 86.2945 109.581C86.226 109.682 86.1788 109.797 86.156 109.917L84.9161 116.454C84.7707 117.22 84.9299 118.014 85.3599 118.665C85.79 119.316 86.4569 119.774 87.219 119.941C88.103 120.135 89.0247 120.061 89.866 119.727C90.7074 119.394 91.4301 118.817 91.9415 118.07C91.9415 118.07 93.7917 109.202 93.4627 109.504Z" fill="#E98862"/>
<path d="M91.3283 99.6118L92.0733 99.6843C92.15 99.6878 92.2253 99.7067 92.2946 99.74C92.3638 99.7733 92.4257 99.8203 92.4763 99.8781C92.527 99.9359 92.5654 100.003 92.5893 100.076C92.6132 100.149 92.6221 100.227 92.6154 100.303L90.7178 115.651C90.6896 115.81 90.6021 115.953 90.473 116.05C90.3439 116.148 90.1828 116.192 90.022 116.175L89.1686 116.113L91.3283 99.6118Z" fill="#292A2E"/>
<path d="M89.3045 116.129L87.7242 116.009C87.6535 116.008 87.584 115.992 87.5197 115.962C87.4555 115.933 87.398 115.89 87.3508 115.838C87.3035 115.785 87.2676 115.724 87.2451 115.657C87.2226 115.59 87.2141 115.519 87.22 115.448L89.1169 99.9674C89.1423 99.823 89.2216 99.6936 89.3387 99.6055C89.4558 99.5173 89.602 99.477 89.7478 99.4925L91.3283 99.6119C91.399 99.6135 91.4685 99.6295 91.5327 99.659C91.5969 99.6884 91.6544 99.7307 91.7017 99.7833C91.7489 99.8358 91.7849 99.8975 91.8074 99.9644C91.8299 100.031 91.8384 100.102 91.8325 100.173L89.9356 115.653C89.9103 115.798 89.8311 115.927 89.7139 116.015C89.5967 116.104 89.4504 116.144 89.3045 116.129Z" fill="#292A2E"/>
<path d="M89.1433 115.81L87.7434 115.695C87.6949 115.694 87.6471 115.683 87.603 115.662C87.5589 115.642 87.5193 115.613 87.4869 115.577C87.4544 115.541 87.4297 115.499 87.4143 115.453C87.3989 115.407 87.3931 115.358 87.3972 115.31L89.2781 100.107C89.2956 100.008 89.3501 99.9194 89.4306 99.8589C89.511 99.7984 89.6114 99.7706 89.7115 99.7813L91.0929 99.8977C91.1414 99.8987 91.1891 99.9097 91.2332 99.9299C91.2773 99.9501 91.3168 99.9792 91.3492 100.015C91.3816 100.051 91.4063 100.094 91.4217 100.14C91.4372 100.186 91.443 100.234 91.4388 100.283L89.5764 115.484C89.559 115.583 89.5046 115.672 89.4242 115.732C89.3437 115.793 89.2433 115.82 89.1433 115.81Z" fill="white"/>
<path d="M90.7423 100.409L90.1295 100.362C90.1034 100.362 90.0778 100.356 90.0541 100.345C90.0304 100.334 90.0092 100.319 89.9918 100.299C89.9744 100.28 89.9611 100.257 89.9529 100.232C89.9446 100.208 89.9415 100.182 89.9437 100.156L90.0015 99.6841L91.0328 99.7622L90.975 100.233C90.9656 100.287 90.9364 100.334 90.8932 100.367C90.85 100.399 90.7961 100.414 90.7423 100.409Z" fill="#292A2E"/>
<path d="M88.1322 111.15C88.2299 110.991 88.3744 110.867 88.5459 110.794C88.7173 110.72 88.9072 110.702 89.0893 110.742C89.0893 110.725 89.0942 110.709 89.1035 110.696C89.113 110.685 89.125 110.678 89.1383 110.674C89.1517 110.67 89.1659 110.669 89.1795 110.672L88.5966 110.174C88.4214 110.031 88.3039 109.829 88.2658 109.606C88.2277 109.384 88.2716 109.154 88.3892 108.961C88.5117 108.774 88.6991 108.64 88.9152 108.583C89.1314 108.527 89.3608 108.552 89.5589 108.655C89.5589 108.646 89.5648 108.638 89.5668 108.63L89.3268 108.426C89.1625 108.29 89.0501 108.102 89.0085 107.893C88.967 107.684 88.9988 107.467 89.0987 107.279C89.1637 107.162 89.2538 107.061 89.3625 106.984C89.4711 106.906 89.5957 106.853 89.7272 106.829C89.8587 106.806 89.9938 106.811 90.1228 106.846C90.2518 106.881 90.3714 106.944 90.4732 107.031L91.027 107.503C91.029 107.5 91.027 107.495 91.03 107.492C91.0331 107.489 91.0391 107.489 91.0429 107.485C90.9205 107.322 90.8573 107.121 90.8637 106.917C90.8701 106.713 90.9457 106.517 91.0782 106.361C91.3942 105.937 92.0286 106.082 92.3865 106.388L93.4394 107.438C93.6018 107.6 93.7216 107.799 93.7883 108.019C93.8549 108.238 93.8663 108.471 93.8214 108.696C93.4338 110.643 92.3006 115.705 91.1578 114.729L88.3444 112.33C88.1813 112.186 88.0716 111.991 88.0331 111.777C87.9946 111.563 88.0295 111.342 88.1322 111.15Z" fill="#E98862"/>
<path d="M82.5871 115.915L78.4529 138.29L67.8855 122L59.8121 131.487L76.6501 154.491L76.7928 154.625C77.6597 155.413 78.7131 155.968 79.8537 156.237C80.9943 156.506 82.1845 156.48 83.3123 156.161C84.44 155.843 85.4682 155.242 86.2998 154.416C87.1313 153.591 87.739 152.567 88.0656 151.441L95.0007 117.907L82.5871 115.915Z" fill="#96B9D9"/>
<path d="M77.8796 140.491C77.8682 140.491 77.8569 140.489 77.8459 140.486C77.8135 140.477 77.7861 140.456 77.7695 140.427C77.7529 140.398 77.7486 140.363 77.7574 140.331L78.3308 138.256C78.3397 138.224 78.3611 138.196 78.3904 138.18C78.4196 138.163 78.4542 138.159 78.4866 138.168C78.519 138.177 78.5466 138.198 78.5631 138.228C78.5797 138.257 78.584 138.291 78.5751 138.324L78.0018 140.398C77.9944 140.425 77.9784 140.448 77.9564 140.465C77.9343 140.482 77.9073 140.491 77.8796 140.491Z" fill="#0C0C0C"/>
<path d="M33.3272 101.954C33.3272 101.954 32.6621 107.909 31.2217 110.016C27.0747 116.082 25.6401 123.05 29.3494 126.89C33.0588 130.731 57.7631 131.888 60.0121 123.537C61.9054 116.507 58.558 115.592 57.9973 109.698C57.7439 107.031 56.9678 101.427 56.9678 101.427" fill="#0A0A0A"/>
<path d="M55.6394 119.331C55.5966 119.334 56.7105 127.132 47.6271 128.294C41.3388 129.099 37.7843 122.979 37.6423 123.009C38.2808 122.73 39.3334 122.251 39.6272 122.074C40.7386 121.402 41.59 120.557 41.5162 118.599C41.4736 117.47 40.0208 111.947 39.8903 110.823L49.8314 110.997C50.1766 113.357 50.3551 118.956 53.8107 119.245C54.3843 119.293 54.9982 119.318 55.6394 119.331Z" fill="#E98862"/>
<path opacity="0.52" d="M51.2941 117.458C51.0469 117.009 50.8496 116.533 50.7058 116.041C50.3671 114.919 50.152 113.764 50.0646 112.596C48.079 112.731 46.0953 112.306 44.339 111.37C44.2959 112.058 43.9081 115.106 44.3047 115.671C45.0527 116.738 47.8331 118.167 51.2941 117.458Z" fill="#0C0C0C"/>
<path d="M48.7722 116.633C44.9336 116.832 40.0565 115.082 39.2599 109.945L38.5411 105.31C37.7442 100.173 39.7957 95.5902 44.6312 94.8396C49.4667 94.0894 53.7268 97.6926 54.5237 102.83L54.842 104.881C55.1477 106.853 55.6209 116.278 48.7722 116.633Z" fill="#E98862"/>
<path opacity="0.52" d="M50.5266 109.605H50.536C50.7319 109.574 50.9259 109.531 51.1172 109.479C51.4028 109.397 51.778 109.259 51.7382 109.002C51.6928 108.709 50.4014 105.676 50.2542 105.331C50.2478 105.316 50.2386 105.302 50.227 105.291C50.2154 105.28 50.2016 105.27 50.1865 105.264C50.1714 105.258 50.1553 105.255 50.139 105.255C50.1228 105.256 50.1067 105.259 50.0917 105.265C50.0767 105.272 50.0631 105.281 50.0517 105.292C50.0403 105.304 50.0313 105.318 50.0252 105.333C50.0191 105.348 50.0161 105.364 50.0162 105.38C50.0164 105.397 50.0197 105.413 50.0261 105.428C50.5771 106.721 51.4624 108.843 51.4931 109.04C51.4581 109.13 50.9834 109.287 50.4972 109.362C50.4656 109.367 50.437 109.384 50.4175 109.409C50.398 109.435 50.3892 109.467 50.3929 109.499C50.3966 109.53 50.4125 109.56 50.4372 109.58C50.462 109.6 50.4937 109.61 50.5256 109.607L50.5266 109.605Z" fill="#0C0C0C"/>
<path opacity="0.52" d="M49.7419 111.786C50.5292 111.71 51.2877 111.45 51.9562 111.027C51.9713 111.02 51.9846 111.009 51.9954 110.996C52.0062 110.983 52.0142 110.968 52.0189 110.951C52.0236 110.935 52.0249 110.918 52.0227 110.901C52.0205 110.884 52.0149 110.868 52.0061 110.854C51.9974 110.839 51.9858 110.827 51.972 110.817C51.9582 110.807 51.9425 110.8 51.9259 110.796C51.9094 110.793 51.8922 110.793 51.8756 110.796C51.859 110.8 51.8433 110.806 51.8294 110.816C50.3847 111.691 48.9737 111.794 47.7503 111.113C47.7257 111.098 47.7003 111.085 47.6742 111.073C47.6438 111.061 47.6098 111.061 47.5797 111.074C47.5496 111.087 47.5259 111.112 47.5138 111.142C47.5017 111.173 47.5021 111.207 47.515 111.237C47.528 111.267 47.5523 111.29 47.5827 111.303C47.5924 111.307 47.6081 111.316 47.6304 111.328C48.2731 111.687 49.0082 111.846 49.7419 111.786Z" fill="#0C0C0C"/>
<path d="M34.6434 106.788L38.9776 106.14C42.2837 104.928 43.4574 99.312 43.4574 99.312C43.4574 99.312 47.2923 103.306 56.968 101.428C56.968 101.428 55.4863 87.9685 41.1702 91.3932C36.554 92.4975 33.1181 96.9997 33.3229 103.175C33.4661 107.503 34.6434 106.788 34.6434 106.788Z" fill="#0A0A0A"/>
<path d="M39.8031 111.463C38.333 111.691 36.8984 110.304 36.6703 108.834C36.4422 107.364 37.508 106.369 38.9768 106.14L39.8867 107.008L41.0658 111.267L39.8031 111.463Z" fill="#E98862"/>
<path d="M51.215 102.917C51.6502 102.656 52.1476 102.517 52.6549 102.514C52.9046 102.511 53.1534 102.546 53.3927 102.617C53.63 102.686 53.8576 102.785 54.07 102.912C54.0982 102.929 54.1188 102.956 54.1277 102.987C54.1366 103.019 54.133 103.053 54.1177 103.082C54.1025 103.111 54.0766 103.133 54.0455 103.144C54.0144 103.155 53.9803 103.153 53.9504 103.14L53.9415 103.135C53.7447 103.03 53.5354 102.951 53.3187 102.898C53.1046 102.844 52.8836 102.824 52.6633 102.837C52.2264 102.859 51.803 102.996 51.4363 103.235L51.4244 103.242C51.3818 103.271 51.3296 103.282 51.2791 103.272C51.2287 103.262 51.1842 103.233 51.1555 103.19C51.1267 103.148 51.1161 103.095 51.1259 103.045C51.1357 102.994 51.1651 102.95 51.2077 102.921L51.215 102.917Z" fill="#0C0C0C"/>
<path d="M47.3435 103.694C46.9222 103.576 46.4772 103.571 46.0536 103.681C45.8392 103.734 45.6341 103.82 45.4453 103.934C45.2543 104.05 45.0786 104.188 44.9222 104.347L44.9151 104.354C44.9031 104.366 44.8889 104.376 44.8733 104.382C44.8576 104.389 44.8408 104.392 44.8239 104.392C44.8069 104.392 44.7902 104.389 44.7745 104.382C44.7588 104.376 44.7446 104.366 44.7326 104.354C44.7206 104.342 44.7111 104.328 44.7046 104.312C44.6981 104.297 44.6947 104.28 44.6947 104.263C44.6946 104.246 44.698 104.229 44.7044 104.214C44.7109 104.198 44.7204 104.184 44.7323 104.172C44.8972 103.988 45.0845 103.825 45.2899 103.688C45.4973 103.549 45.7244 103.442 45.9636 103.37C46.4485 103.22 46.9647 103.204 47.4578 103.324C47.5076 103.336 47.5505 103.368 47.5769 103.412C47.6034 103.456 47.6113 103.509 47.5988 103.559C47.5864 103.608 47.5547 103.651 47.5106 103.678C47.4666 103.704 47.4138 103.712 47.364 103.7L47.3561 103.697L47.3435 103.694Z" fill="#0C0C0C"/>
<path opacity="0.52" d="M49.8702 112.95C50.0128 112.939 50.1541 112.915 50.2927 112.88C50.3236 112.871 50.3498 112.85 50.3658 112.823C50.3818 112.795 50.3864 112.762 50.3786 112.731C50.3707 112.7 50.3511 112.673 50.3238 112.656C50.2965 112.639 50.2637 112.634 50.2324 112.64C49.3985 112.851 48.9397 112.52 48.92 112.506C48.907 112.496 48.8923 112.489 48.8766 112.485C48.8609 112.481 48.8446 112.48 48.8285 112.482C48.8125 112.485 48.797 112.49 48.783 112.498C48.7691 112.507 48.7569 112.517 48.7471 112.53C48.7274 112.557 48.7189 112.589 48.7235 112.622C48.728 112.654 48.7453 112.684 48.7714 112.703C49.0982 112.91 49.4864 112.997 49.8702 112.95Z" fill="#0C0C0C"/>
<path d="M38.9885 106.086L38.9497 105.965C44.4751 104.186 43.3155 98.7853 43.3031 98.731L43.4268 98.7026C43.4392 98.7582 44.6233 104.271 38.9885 106.086Z" fill="#0C0C0C"/>
<path opacity="0.1" d="M46.6409 109.853C47.2733 109.806 47.758 109.392 47.7236 108.928C47.6892 108.464 47.1486 108.126 46.5162 108.173C45.8839 108.22 45.3991 108.634 45.4335 109.098C45.468 109.562 46.0085 109.9 46.6409 109.853Z" fill="#0C0C0C"/>
<path opacity="0.1" d="M53.3697 108.305C53.4054 108.769 53.9458 109.106 54.5782 109.06C54.6874 109.052 54.7956 109.033 54.9008 109.002C54.9546 108.454 54.9802 107.925 54.9857 107.435C54.8133 107.384 54.6328 107.365 54.4535 107.38C53.8203 107.426 53.3357 107.84 53.3697 108.305Z" fill="#0C0C0C"/>
<path d="M53.3679 105.254C53.7008 105.254 53.9706 104.984 53.9706 104.651C53.9706 104.318 53.7008 104.048 53.3679 104.048C53.035 104.048 52.7652 104.318 52.7652 104.651C52.7652 104.984 53.035 105.254 53.3679 105.254Z" fill="#0C0C0C"/>
<path d="M47.4015 105.857C47.7344 105.857 48.0042 105.587 48.0042 105.254C48.0042 104.921 47.7344 104.651 47.4015 104.651C47.0686 104.651 46.7988 104.921 46.7988 105.254C46.7988 105.587 47.0686 105.857 47.4015 105.857Z" fill="#0C0C0C"/>
<path d="M70.2282 134.01C70.6249 137.378 73.4861 158.317 74.0508 162.451L36.7137 170.104C35.7493 166.468 31.5069 150.578 29.2334 143.549C27.0635 136.842 25.013 133.429 25.5387 130.174C26.1521 126.374 31.1688 124.852 34.4191 123.714C36.4039 123.019 39.4335 122.193 39.4335 122.193C39.4335 122.193 40.7713 127.4 47.0302 126.422C55.5504 125.091 53.7676 119.255 53.8094 119.246C55.1763 118.968 61.9961 118.503 64.1386 119.244C69.9768 121.26 69.3887 126.87 70.2282 134.01Z" fill="#96B9D9"/>
<path d="M70.6164 136.274L70.3655 136.31L72.2573 149.319L72.5082 149.283L70.6164 136.274Z" fill="#0C0C0C"/>
<path d="M22.3492 190.003L10.1404 186.605C15.7887 166.305 24.9583 132.916 25.5182 129.744C25.4716 130.044 25.4515 130.348 25.4581 130.652L38.1297 130.472C38.1475 131.721 38.1581 132.475 30.1402 161.769C26.291 175.834 22.3882 189.863 22.3492 190.003Z" fill="#96B9D9"/>
<path d="M34.7988 142.675L32.2395 154.205L32.4869 154.26L35.0462 142.73L34.7988 142.675Z" fill="#0C0C0C"/>
<path d="M62.0007 165.868C62.0007 165.868 95.2929 148.664 104.515 145.483C106.904 144.658 111.268 143.9 115.01 146.088C126.171 152.615 155.645 179.193 155.645 179.193L148.485 189.894L109.549 162.004C109.549 162.004 90.8929 175.317 74.0509 181.172L57.0509 179.163L62.0007 165.868Z" fill="#262626"/>
<path d="M160.022 182.289C160.022 182.289 165.985 181.32 166.479 175.777C166.973 170.234 171.36 171.568 171.36 171.568L170.735 192.787L160.135 192.475L160.022 182.289Z" fill="#96B9D9"/>
<path d="M51.4429 192.488C51.4429 192.488 49.6623 192.369 53.7052 192.502C68.786 192.999 163.478 192.75 163.478 192.75L163.526 178.543L51.4748 170.589L51.4429 192.488Z" fill="#262626"/>
<path d="M91.7225 173.526C91.7171 173.527 91.7118 173.527 91.7065 173.526L80.662 172.134C80.6287 172.13 80.5984 172.112 80.5778 172.086C80.5572 172.059 80.5481 172.025 80.5523 171.992C80.5541 171.976 80.5592 171.959 80.5674 171.945C80.5755 171.93 80.5865 171.917 80.5997 171.907C80.6129 171.897 80.628 171.89 80.6442 171.885C80.6603 171.881 80.6772 171.88 80.6937 171.882L91.7382 173.275C91.7718 173.277 91.8032 173.292 91.8255 173.317C91.8478 173.343 91.8591 173.376 91.857 173.409C91.855 173.443 91.8396 173.474 91.8144 173.497C91.7891 173.519 91.7561 173.53 91.7225 173.528V173.526Z" fill="white"/>
<path d="M154.677 177.944H154.668L128.13 176.064C128.097 176.061 128.066 176.046 128.044 176.02C128.022 175.995 128.011 175.962 128.013 175.928C128.015 175.895 128.031 175.864 128.056 175.841C128.082 175.819 128.115 175.808 128.148 175.811L154.685 177.691C154.702 177.692 154.718 177.696 154.733 177.703C154.749 177.709 154.762 177.719 154.774 177.731C154.785 177.744 154.794 177.758 154.8 177.774C154.805 177.789 154.808 177.806 154.808 177.822C154.807 177.839 154.803 177.855 154.796 177.871C154.789 177.886 154.78 177.899 154.767 177.911C154.755 177.922 154.741 177.931 154.725 177.937C154.71 177.943 154.693 177.945 154.676 177.945L154.677 177.944Z" fill="white"/>
<path d="M241.612 193H0.186797C0.161704 193.001 0.136682 192.997 0.113227 192.988C0.0897719 192.979 0.0683649 192.965 0.0502855 192.948C0.0322061 192.93 0.0178255 192.91 0.00800313 192.886C-0.00181924 192.863 -0.00688171 192.838 -0.00688171 192.813C-0.00688171 192.788 -0.00181924 192.763 0.00800313 192.74C0.0178255 192.717 0.0322061 192.696 0.0502855 192.679C0.0683649 192.661 0.0897719 192.648 0.113227 192.639C0.136682 192.63 0.161704 192.626 0.186797 192.627H241.612C241.637 192.626 241.662 192.63 241.686 192.639C241.709 192.648 241.731 192.661 241.749 192.679C241.767 192.696 241.781 192.717 241.791 192.74C241.801 192.763 241.806 192.788 241.806 192.813C241.806 192.838 241.801 192.863 241.791 192.886C241.781 192.91 241.767 192.93 241.749 192.948C241.731 192.965 241.709 192.979 241.686 192.988C241.662 192.997 241.637 193.001 241.612 193Z" fill="#292A2E"/>
<path d="M152.248 94.1157L152.161 94.3456C152.076 94.5698 152.18 94.7368 151.569 94.7368H144.02C143.409 94.7368 143.513 94.5698 143.428 94.3456L143.341 94.1157H152.248Z" fill="#C69158"/>
<path d="M153.555 60.0651C153.686 60.0942 153.8 60.1743 153.872 60.2877C153.944 60.4012 153.969 60.5388 153.94 60.6702L147.929 87.8603L146.941 87.6408L152.951 60.4502C152.98 60.3188 153.06 60.2044 153.173 60.1321C153.287 60.0597 153.424 60.0355 153.555 60.0646L153.555 60.0651Z" fill="#0FBC56"/>
<path d="M148.024 88.0125L146.789 87.738L152.828 60.4235C152.864 60.2594 152.964 60.1165 153.106 60.0262C153.247 59.9359 153.419 59.9056 153.582 59.942C153.746 59.9784 153.889 60.0785 153.979 60.2203C154.069 60.3621 154.099 60.5339 154.063 60.698L148.024 88.0125ZM147.09 87.5452L147.83 87.7095L153.816 60.6427C153.838 60.5443 153.819 60.4412 153.765 60.3562C153.711 60.2712 153.626 60.2112 153.527 60.1894C153.429 60.1676 153.326 60.1858 153.242 60.24C153.157 60.2942 153.097 60.3799 153.075 60.4783L147.09 87.5452Z" fill="#154007"/>
<path opacity="0.5" d="M154.973 75.3696H140.754C140.601 75.3696 140.476 75.4946 140.476 75.6487V75.8516C140.476 76.0058 140.601 76.1307 140.754 76.1307H154.973C155.127 76.1307 155.252 76.0058 155.252 75.8516V75.6487C155.252 75.4946 155.127 75.3696 154.973 75.3696Z" fill="#64BCB3"/>
<path opacity="0.5" d="M155.403 74.5395C155.403 72.5359 154.608 70.6143 153.195 69.1976C151.781 67.7808 149.863 66.9849 147.864 66.9849C145.864 66.9849 143.947 67.7808 142.533 69.1976C141.119 70.6143 140.325 72.5359 140.325 74.5395H155.403Z" fill="#64BCB3"/>
<path d="M155.655 74.574H155.149C155.149 70.5484 151.881 67.2733 147.864 67.2733C143.846 67.2733 140.578 70.5484 140.578 74.574H140.072C140.072 70.2683 143.565 66.7659 147.864 66.7659C152.162 66.7659 155.655 70.2688 155.655 74.574Z" fill="#385868"/>
<path d="M142.842 70.5099C143.932 69.3601 145.526 68.1998 147.17 68.2556C147.449 68.2652 147.449 67.8304 147.17 67.8207C145.409 67.7609 143.705 68.9689 142.536 70.2024C142.344 70.4053 142.65 70.7128 142.843 70.5099H142.842Z" fill="white"/>
<path d="M154.973 76.2991H140.754C140.627 76.2989 140.505 76.2481 140.414 76.1577C140.324 76.0674 140.273 75.9448 140.273 75.817V75.6141C140.273 75.4863 140.324 75.3638 140.414 75.2734C140.505 75.183 140.627 75.1322 140.754 75.1321H154.973C155.101 75.1322 155.223 75.183 155.313 75.2734C155.403 75.3638 155.454 75.4863 155.454 75.6141V75.817C155.454 75.9448 155.403 76.0674 155.313 76.1577C155.223 76.2481 155.101 76.2989 154.973 76.2991ZM140.754 75.538C140.734 75.5382 140.715 75.5464 140.701 75.5606C140.687 75.5748 140.679 75.594 140.678 75.6141V75.817C140.679 75.8371 140.687 75.8564 140.701 75.8706C140.715 75.8848 140.734 75.8929 140.754 75.8932H154.973C154.993 75.8929 155.013 75.8848 155.027 75.8706C155.041 75.8564 155.049 75.8371 155.049 75.817V75.6141C155.049 75.594 155.041 75.5748 155.027 75.5606C155.013 75.5464 154.993 75.5382 154.973 75.538H140.754Z" fill="#385868"/>
<path opacity="0.5" d="M155.417 74.4705H140.311C140.157 74.4705 140.032 74.5954 140.032 74.7495V74.9525C140.032 75.1066 140.157 75.2315 140.311 75.2315H155.417C155.571 75.2315 155.695 75.1066 155.695 74.9525V74.7495C155.695 74.5954 155.571 74.4705 155.417 74.4705Z" fill="#64BCB3"/>
<path d="M155.417 75.4021H140.311C140.183 75.402 140.061 75.3511 139.971 75.2608C139.881 75.1704 139.83 75.0479 139.83 74.9201V74.7171C139.83 74.5893 139.881 74.4668 139.971 74.3764C140.061 74.2861 140.183 74.2352 140.311 74.2351H155.417C155.544 74.2352 155.667 74.2861 155.757 74.3764C155.847 74.4668 155.898 74.5893 155.898 74.7171V74.9201C155.898 75.0479 155.847 75.1704 155.757 75.2608C155.667 75.3511 155.544 75.402 155.417 75.4021ZM140.311 74.641C140.291 74.6413 140.272 74.6494 140.257 74.6636C140.243 74.6778 140.235 74.697 140.235 74.7171V74.9201C140.235 74.9402 140.243 74.9594 140.257 74.9736C140.272 74.9878 140.291 74.9959 140.311 74.9962H155.417C155.437 74.9959 155.456 74.9878 155.47 74.9736C155.484 74.9594 155.493 74.9402 155.493 74.9201V74.7171C155.493 74.697 155.484 74.6778 155.47 74.6636C155.456 74.6494 155.437 74.6413 155.417 74.641H140.311Z" fill="#385868"/>
<path d="M147.719 94.7373H151.451C152.079 94.7373 152.265 94.2741 152.353 93.651L154.739 76.6416C154.747 76.586 154.743 76.5295 154.727 76.4757C154.711 76.422 154.684 76.3723 154.647 76.33C154.61 76.2876 154.565 76.2537 154.514 76.2304C154.463 76.2072 154.408 76.1951 154.352 76.1951H141.375C141.319 76.1951 141.264 76.2072 141.213 76.2304C141.162 76.2537 141.117 76.2876 141.08 76.33C141.043 76.3723 141.016 76.422 141 76.4757C140.984 76.5295 140.98 76.586 140.988 76.6416L143.374 93.651C143.462 94.2741 143.579 94.7373 144.207 94.7373H148.008" fill="#C69158"/>
<path opacity="0.2" d="M147.723 93.8749H152.145C152.846 93.266 152.145 93.4502 152.231 92.8794L154.553 77.2962C154.585 77.08 154.753 76.8872 154.522 76.8872H141.276C141.044 76.8872 141.143 77.08 141.175 77.2962L143.497 92.8794C143.582 93.4502 142.972 93.8749 143.583 93.8749H148.005" fill="white"/>
<path d="M151.643 94.8895H143.982C143.78 94.8887 143.586 94.8154 143.434 94.6829C143.282 94.5505 143.182 94.3678 143.153 94.168L140.583 75.8398H155.043L152.471 94.1675C152.442 94.3674 152.343 94.5502 152.191 94.6828C152.039 94.8153 151.844 94.8887 151.643 94.8895ZM147.669 94.3821H151.643C151.722 94.3818 151.799 94.3529 151.859 94.3005C151.919 94.2482 151.959 94.1759 151.97 94.097L154.462 76.3472H141.165L143.657 94.097C143.668 94.1756 143.707 94.2476 143.766 94.2999C143.826 94.3522 143.902 94.3814 143.982 94.3821H147.669Z" fill="#385868"/>
<g opacity="0.5">
<path opacity="0.3" d="M151.233 91.7828L151.767 91.7467C151.861 91.7403 151.933 91.6583 151.926 91.5635L151.89 91.0284C151.884 90.9336 151.802 90.862 151.707 90.8684L151.173 90.9045C151.079 90.9109 151.007 90.9929 151.014 91.0877L151.05 91.6228C151.056 91.7175 151.138 91.7892 151.233 91.7828Z" fill="#F7D1A9"/>
<path d="M151.265 92.336L151.754 92.1176C151.84 92.079 151.879 91.9773 151.841 91.8905L151.623 91.4007C151.584 91.3139 151.483 91.275 151.396 91.3136L150.907 91.532C150.821 91.5707 150.782 91.6724 150.82 91.7592L151.038 92.249C151.077 92.3357 151.178 92.3747 151.265 92.336Z" fill="white"/>
<path opacity="0.3" d="M149.824 92.2043L149.442 91.8282C149.375 91.7615 149.266 91.7624 149.199 91.8301L148.824 92.2124C148.758 92.2801 148.758 92.389 148.826 92.4556L149.207 92.8318C149.275 92.8984 149.384 92.8975 149.45 92.8298L149.826 92.4476C149.892 92.3799 149.891 92.271 149.824 92.2043Z" fill="#F7D1A9"/>
<path d="M150.249 92.3569L149.867 91.9808C149.8 91.9141 149.691 91.915 149.625 91.9827L149.249 92.365C149.183 92.4327 149.184 92.5416 149.251 92.6082L149.633 92.9844C149.7 93.051 149.809 93.0501 149.875 92.9824L150.251 92.6002C150.317 92.5325 150.316 92.4235 150.249 92.3569Z" fill="white"/>
</g>
<g opacity="0.5">
<path opacity="0.3" d="M148.337 90.9228L147.802 90.9604C147.707 90.967 147.636 91.0494 147.642 91.1444L147.68 91.6807C147.686 91.7757 147.768 91.8473 147.863 91.8407L148.398 91.8031C148.493 91.7965 148.565 91.7141 148.558 91.6191L148.521 91.0828C148.514 90.9878 148.432 90.9162 148.337 90.9228Z" fill="#F7D1A9"/>
<path d="M148.202 90.3222L147.714 90.5406C147.627 90.5792 147.588 90.6809 147.627 90.7677L147.845 91.2575C147.883 91.3443 147.985 91.3833 148.071 91.3446L148.56 91.1262C148.647 91.0875 148.686 90.9858 148.647 90.899L148.429 90.4092C148.391 90.3225 148.289 90.2835 148.202 90.3222Z" fill="white"/>
<path opacity="0.3" d="M149.644 90.4534L150.026 90.8296C150.093 90.8962 150.202 90.8953 150.268 90.8276L150.644 90.4453C150.71 90.3776 150.709 90.2687 150.642 90.2021L150.26 89.8259C150.193 89.7593 150.084 89.7602 150.018 89.8279L149.642 90.2101C149.576 90.2779 149.577 90.3868 149.644 90.4534Z" fill="#F7D1A9"/>
<path d="M149.219 90.3006L149.6 90.6767C149.668 90.7433 149.776 90.7425 149.843 90.6748L150.218 90.2925C150.285 90.2248 150.284 90.1159 150.216 90.0493L149.835 89.6731C149.767 89.6065 149.659 89.6073 149.592 89.6751L149.217 90.0573C149.15 90.125 149.151 90.2339 149.219 90.3006Z" fill="white"/>
</g>
<g opacity="0.5">
<path opacity="0.3" d="M146.901 92.7619L147.414 92.9156C147.504 92.9428 147.6 92.8911 147.627 92.8001L147.78 92.2862C147.808 92.1952 147.756 92.0994 147.665 92.0722L147.152 91.9185C147.062 91.8913 146.966 91.943 146.939 92.034L146.786 92.5478C146.758 92.6388 146.81 92.7347 146.901 92.7619Z" fill="#F7D1A9"/>
<path d="M146.743 93.2902L147.278 93.2574C147.372 93.2515 147.444 93.17 147.438 93.0751L147.406 92.5398C147.4 92.445 147.318 92.3729 147.224 92.3787L146.69 92.4115C146.595 92.4173 146.523 92.4989 146.529 92.5937L146.561 93.129C146.567 93.2239 146.649 93.296 146.743 93.2902Z" fill="white"/>
<path opacity="0.3" d="M145.434 92.6593L145.208 92.1731C145.168 92.0869 145.066 92.0496 144.98 92.0896L144.495 92.3158C144.409 92.3558 144.371 92.4581 144.411 92.5443L144.637 93.0305C144.677 93.1167 144.779 93.154 144.865 93.114L145.35 92.8878C145.436 92.8478 145.473 92.7455 145.434 92.6593Z" fill="#F7D1A9"/>
<path d="M145.778 92.9521L145.553 92.4658C145.513 92.3796 145.411 92.3423 145.325 92.3823L144.839 92.6085C144.753 92.6485 144.716 92.7508 144.756 92.837L144.982 93.3233C145.022 93.4094 145.124 93.4468 145.21 93.4067L145.695 93.1806C145.781 93.1405 145.818 93.0382 145.778 92.9521Z" fill="white"/>
</g>
<g opacity="0.5">
<path opacity="0.3" d="M144.414 90.8599L143.902 90.7063C143.811 90.679 143.715 90.7308 143.688 90.8218L143.535 91.3356C143.508 91.4266 143.559 91.5224 143.65 91.5497L144.163 91.7033C144.254 91.7305 144.349 91.6788 144.376 91.5878L144.53 91.074C144.557 90.983 144.505 90.8871 144.414 90.8599Z" fill="#F7D1A9"/>
<path d="M144.572 90.3311L144.038 90.364C143.944 90.3698 143.872 90.4514 143.877 90.5462L143.91 91.0815C143.916 91.1763 143.997 91.2485 144.092 91.2426L144.626 91.2098C144.721 91.204 144.793 91.1224 144.787 91.0276L144.754 90.4923C144.748 90.3975 144.667 90.3253 144.572 90.3311Z" fill="white"/>
<path opacity="0.3" d="M145.882 90.962L146.108 91.4483C146.148 91.5344 146.25 91.5718 146.336 91.5317L146.821 91.3056C146.907 91.2655 146.944 91.1632 146.904 91.0771L146.679 90.5908C146.639 90.5047 146.537 90.4673 146.451 90.5074L145.966 90.7335C145.88 90.7736 145.842 90.8759 145.882 90.962Z" fill="#F7D1A9"/>
<path d="M145.537 90.6695L145.763 91.1558C145.803 91.2419 145.905 91.2793 145.991 91.2392L146.476 91.0131C146.562 90.973 146.599 90.8707 146.559 90.7846L146.333 90.2983C146.293 90.2122 146.191 90.1748 146.105 90.2149L145.62 90.441C145.534 90.4811 145.497 90.5834 145.537 90.6695Z" fill="white"/>
</g>
<path d="M152.734 82.8097L151.975 88.2605L151.867 89.0347C151.847 89.1783 152.066 89.2407 152.087 89.0956L152.846 83.6448L152.954 82.8705C152.974 82.727 152.754 82.6646 152.734 82.8097Z" fill="white"/>
<path d="M153.132 79.9537L152.907 81.5687C152.887 81.7123 153.106 81.7747 153.127 81.6296L153.351 80.0146C153.371 79.871 153.152 79.8086 153.132 79.9537Z" fill="white"/>
<path d="M153.456 77.6183L153.234 79.2109C153.215 79.3545 153.434 79.4169 153.454 79.2718L153.676 77.6791C153.696 77.5356 153.476 77.4731 153.456 77.6183Z" fill="white"/>
</g>
<defs>
<clipPath id="clip0_164_1579">
<rect width="248" height="193" fill="white"/>
</clipPath>
</defs>
</svg>
