<svg width="556" height="198" viewBox="0 0 556 198" fill="none" xmlns="http://www.w3.org/2000/svg">
<g clip-path="url(#clip0_164_1741)">
<path d="M345.282 198H90.2021C94.228 164.118 124.359 167.649 138.665 162.966C146.792 160.309 153.191 152.563 159.914 146.131C183.929 123.156 230.507 122.909 282.422 151.514C291.825 156.695 302.476 158.999 313.215 158.784C326.85 158.511 345.282 177.233 345.282 198Z" fill="#F3F5FD"/>
<path d="M268.94 127.255H276.836V76.2452H268.94V127.255Z" fill="#C1D8ED"/>
<path d="M268.94 127.255H274.594V76.2452H268.94V127.255Z" fill="#D7E8F4"/>
<path d="M195.766 127.255H203.662V76.2452H195.766V127.255Z" fill="#C1D8ED"/>
<path d="M195.766 127.255H201.42V76.2452H195.766V127.255Z" fill="#D7E8F4"/>
<path d="M280.189 173.781H288.086V127.255H280.189V173.781Z" fill="#C1D8ED"/>
<path d="M280.19 173.781H285.844V127.255H280.19V173.781Z" fill="#D7E8F4"/>
<path d="M184.594 173.781H192.49V127.255H184.594V173.781Z" fill="#C1D8ED"/>
<path d="M184.594 173.781H190.248V127.255H184.594V173.781Z" fill="#D7E8F4"/>
<path d="M254.19 173.781H262.086V127.255H254.19V173.781Z" fill="#C1D8ED"/>
<path d="M254.19 173.781H259.844V127.255H254.19V173.781Z" fill="#D7E8F4"/>
<path d="M160.836 173.781H168.732V127.255H160.836V173.781Z" fill="#C1D8ED"/>
<path d="M160.836 173.781H166.49V127.255H160.836V173.781Z" fill="#D7E8F4"/>
<path d="M183.375 86.7588L291.469 86.7588V79.4039L183.375 79.4039V86.7588Z" fill="#C1D8ED"/>
<path d="M183.375 101.736L291.469 101.736V94.3809L183.375 94.3809V101.736Z" fill="#C1D8ED"/>
<path d="M183.375 116.712L291.469 116.712V109.357L183.375 109.357V116.712Z" fill="#C1D8ED"/>
<path d="M181.133 86.7588L289.227 86.7588V79.4039L181.133 79.4039V86.7588Z" fill="#D7E8F4"/>
<path d="M181.133 101.736L289.227 101.736V94.3809L181.133 94.3809V101.736Z" fill="#D7E8F4"/>
<path d="M181.133 116.712L289.227 116.712V109.357L181.133 109.357V116.712Z" fill="#D7E8F4"/>
<path d="M263.919 129.751H291.469V124.76H263.919V129.751Z" fill="#C1D8ED"/>
<path d="M263.919 124.76H156.839V129.751H263.919V124.76Z" fill="#D7E8F4"/>
<path d="M324.073 52.0263L257.017 51.6586C257.413 49.1183 258.817 46.7694 260.952 45.631C263.593 44.222 266.791 44.6595 269.761 45.0434C272.73 45.4272 276.008 45.6503 278.456 43.9317C279.688 43.0669 280.563 41.8013 281.563 40.6762C284.42 37.4578 288.91 35.2705 293.058 36.435C295.145 37.0211 296.922 38.374 298.899 39.2621C300.977 40.1918 303.251 40.5985 305.523 40.4468C307.865 40.2868 310.199 39.535 312.52 39.8908C315.461 40.3441 317.862 42.5137 319.593 44.93C321.235 47.2176 322.403 49.4346 324.073 52.0263Z" fill="#F3F5FD"/>
<path d="M172.273 36.6401H98.8738C98.5075 35.9519 98.3041 35.1891 98.2792 34.4102C98.2543 33.6313 98.4086 32.8571 98.7302 32.147C99.0518 31.4368 99.5321 30.8097 100.134 30.3137C100.737 29.8177 101.445 29.466 102.204 29.2856C104.601 28.7181 107.309 29.8823 109.494 28.7489C111.188 27.8683 111.971 25.8812 112.332 24.0102C112.693 22.1392 112.797 20.1631 113.707 18.488C115.237 15.6751 118.869 14.4205 122.006 15.0887C125.142 15.7569 127.747 18.0394 129.462 20.744C130.168 21.856 130.808 23.1134 131.971 23.7333C133.313 24.4493 134.984 24.1081 136.363 23.4672C137.742 22.8263 138.993 21.9042 140.439 21.4276C141.911 20.9757 143.488 20.9974 144.947 21.4895C146.406 21.9817 147.673 22.9193 148.569 24.1697C149.808 25.9775 150.327 28.4666 152.272 29.4795C153.098 29.8526 153.999 30.0325 154.906 30.0055C158.507 30.0923 162.209 29.2552 165.656 30.3012C167.17 30.7845 168.553 31.6069 169.7 32.7056C170.847 33.8042 171.727 35.15 172.273 36.6401Z" fill="#F3F5FD"/>
<path d="M229.328 192.992L221.076 192.013C221.447 188.896 221.868 185.152 221.896 184.538C221.896 184.578 221.896 184.61 221.896 184.635H230.206C230.204 184.884 230.204 185.64 229.328 192.992Z" fill="#E98862"/>
<path d="M144.785 188.307L137.5 184.318C137.5 184.318 141.628 176.811 141.991 176.144L149.29 180.11C148.924 180.777 144.785 188.307 144.785 188.307Z" fill="#E98862"/>
<path d="M209.703 136.198C212.453 154.278 215.622 173.178 217.824 191.263L232.323 189.235C229.214 170.523 226.962 150.767 224.16 131.988C218.242 114.833 203.36 76.9251 203.36 76.9251L173.257 75.0691C173.257 75.0691 167.413 120.108 165.191 134.489L137.484 179.856L149.863 187.656L179.956 141.71C180.501 140.87 180.877 139.931 181.062 138.946C181.129 138.596 183.176 127.397 183.234 127.109C185.252 116.614 190.408 94.4829 190.408 94.4829C196.843 108.358 204.251 122.186 209.703 136.198Z" fill="#262626"/>
<path d="M152.12 195.944C152.316 196.05 152.533 196.115 152.756 196.133C152.979 196.152 153.203 196.124 153.415 196.052C153.626 195.981 153.821 195.866 153.986 195.716C154.151 195.565 154.284 195.383 154.375 195.179C154.502 194.897 154.545 194.584 154.499 194.278C154.454 193.973 154.322 193.686 154.119 193.453L147.174 185.997C147.039 185.854 146.875 185.741 146.692 185.666C146.509 185.592 146.313 185.558 146.115 185.566C144.506 185.74 142.883 185.394 141.486 184.579C140.423 183.898 139.573 182.934 139.032 181.795C138.989 181.688 138.915 181.595 138.821 181.528C138.727 181.46 138.615 181.421 138.499 181.415C138.383 181.408 138.268 181.435 138.166 181.492C138.065 181.548 137.982 181.633 137.927 181.735L135.665 185.881C135.598 186.003 135.556 186.137 135.542 186.276C135.527 186.414 135.54 186.554 135.58 186.688C135.62 186.821 135.685 186.946 135.773 187.054C135.861 187.162 135.97 187.251 136.093 187.317L152.12 195.944Z" fill="#C1D8ED"/>
<path d="M239.452 197.191C239.676 197.19 239.896 197.143 240.101 197.053C240.305 196.963 240.489 196.832 240.64 196.667C240.792 196.503 240.908 196.31 240.981 196.099C241.054 195.889 241.083 195.665 241.065 195.443C241.041 195.134 240.929 194.84 240.743 194.593C240.557 194.346 240.303 194.157 240.013 194.049L230.341 190.816C230.154 190.754 229.955 190.733 229.759 190.755C229.563 190.777 229.374 190.841 229.205 190.942C227.875 191.863 226.285 192.334 224.667 192.285C223.407 192.195 222.198 191.754 221.177 191.012C221.087 190.939 220.978 190.892 220.863 190.878C220.748 190.864 220.631 190.883 220.526 190.933C220.421 190.982 220.333 191.061 220.271 191.159C220.209 191.257 220.176 191.37 220.176 191.486V196.206C220.176 196.345 220.204 196.483 220.258 196.612C220.311 196.74 220.389 196.857 220.488 196.955C220.587 197.054 220.705 197.131 220.834 197.184C220.963 197.237 221.101 197.264 221.24 197.264L239.452 197.191Z" fill="#C1D8ED"/>
<path d="M185.003 33.8207C185.003 33.8207 188.198 32.4852 188.273 24.1426L194.675 23.5503C194.675 23.5503 193.29 30.9103 196.26 33.5569L185.003 33.8207Z" fill="#E98862"/>
<g opacity="0.15">
<path d="M195.112 31.8871L190.245 27.4185L194.356 27.7494C194.348 29.1635 194.604 30.5668 195.112 31.8871Z" fill="black"/>
</g>
<path d="M184.993 20.6069C185.2 23.1591 186.357 25.6616 188.503 26.6765C190.837 27.8551 193.423 28.4462 196.038 28.3982C202.981 28.4602 203.045 12.6968 200.05 9.36189C197.055 6.027 187.276 7.07782 185.645 12.0527C184.801 14.6262 184.797 18.1779 184.993 20.6069Z" fill="#E98862"/>
<path d="M195.081 19.5699C195.397 19.5699 195.654 19.3138 195.654 18.9977C195.654 18.6817 195.397 18.4255 195.081 18.4255C194.764 18.4255 194.507 18.6817 194.507 18.9977C194.507 19.3138 194.764 19.5699 195.081 19.5699Z" fill="#0F1011"/>
<path d="M199.62 19.6105C199.936 19.6105 200.193 19.3543 200.193 19.0383C200.193 18.7222 199.936 18.4661 199.62 18.4661C199.303 18.4661 199.046 18.7222 199.046 19.0383C199.046 19.3543 199.303 19.6105 199.62 19.6105Z" fill="#0F1011"/>
<path d="M200.721 17.9141H200.718L199.207 17.7561C199.172 17.7525 199.137 17.742 199.106 17.7251C199.075 17.7083 199.048 17.6855 199.025 17.6581C199.003 17.6307 198.986 17.5991 198.976 17.5653C198.966 17.5314 198.963 17.4959 198.967 17.4608C198.977 17.3912 199.013 17.328 199.068 17.2837C199.123 17.2394 199.192 17.2172 199.263 17.2215L200.773 17.3794C200.843 17.3882 200.906 17.4238 200.95 17.4784C200.994 17.5331 201.014 17.6026 201.008 17.6723C201.001 17.7419 200.967 17.8061 200.914 17.8514C200.86 17.8966 200.791 17.9192 200.721 17.9145V17.9141Z" fill="#0F1011"/>
<path d="M193.943 17.8533C193.877 17.8473 193.816 17.8175 193.771 17.7695C193.726 17.7215 193.7 17.6586 193.698 17.5928C193.696 17.527 193.718 17.4628 193.761 17.4124C193.803 17.362 193.863 17.3289 193.928 17.3194L195.452 17.0967C195.523 17.0862 195.595 17.1042 195.653 17.1467C195.71 17.1892 195.748 17.2527 195.759 17.3233C195.769 17.3939 195.751 17.4658 195.709 17.5231C195.666 17.5804 195.602 17.6185 195.532 17.629L194.007 17.8517C193.986 17.8547 193.964 17.8552 193.943 17.8533Z" fill="#0F1011"/>
<path d="M188.442 26.3679C188.273 26.7739 188.165 26.9476 187.809 26.6898C186.408 25.6777 183.646 23.501 183.164 16.2428C182.731 9.73891 186.935 7.45483 190.182 6.79852C192.98 6.23263 198.6 7.32254 201.509 9.26187C203.667 10.7001 201.704 13.8533 201.704 13.8533C200.563 13.8024 201.087 10.815 198.405 10.5713C196.333 10.383 194.228 13.2776 192.28 13.1828C190.496 13.0959 190.033 14.1436 190.032 14.8413C190.032 19.0778 189.039 24.9329 188.442 26.3679Z" fill="#0F1011"/>
<path d="M191.983 20.1222C191.972 20.7617 191.708 21.3707 191.248 21.8168C190.789 22.2629 190.172 22.5099 189.531 22.5042C188.89 22.4985 188.278 22.2404 187.826 21.7862C187.375 21.332 187.122 20.7183 187.122 20.0788C187.12 19.7586 187.182 19.4412 187.305 19.1454C187.427 18.8497 187.609 18.5817 187.838 18.3574C188.067 18.133 188.338 17.957 188.637 17.8397C188.936 17.7224 189.255 17.6663 189.575 17.6746C191.303 17.7753 191.996 18.7827 191.983 20.1222Z" fill="#E98862"/>
<g opacity="0.15">
<path d="M197.328 22.3886C197.347 22.3905 197.367 22.3894 197.386 22.3854L198.799 22.0888C198.826 22.0831 198.852 22.0717 198.875 22.0552C198.898 22.0387 198.917 22.0175 198.93 21.9932C198.944 21.9688 198.953 21.9418 198.956 21.9139C198.958 21.886 198.955 21.8579 198.946 21.8314L198.225 19.7408C198.217 19.7157 198.204 19.6924 198.187 19.6723C198.17 19.6522 198.149 19.6357 198.125 19.6239C198.101 19.612 198.076 19.605 198.049 19.6032C198.023 19.6015 197.996 19.605 197.971 19.6136C197.946 19.6222 197.923 19.6357 197.904 19.6533C197.884 19.6709 197.868 19.6923 197.857 19.7161C197.846 19.74 197.839 19.7659 197.838 19.7922C197.837 19.8185 197.841 19.8448 197.851 19.8695L198.498 21.7484L197.305 21.9988C197.258 22.0086 197.217 22.0347 197.188 22.0722C197.16 22.1098 197.145 22.1564 197.148 22.2035C197.151 22.2507 197.171 22.2953 197.204 22.3292C197.236 22.3632 197.28 22.3842 197.328 22.3886Z" fill="black"/>
</g>
<path d="M194.936 23.5112C194.936 23.5112 197.023 23.9243 198.548 23.5436C198.548 23.5436 198.409 24.9277 196.727 24.9127C195.045 24.8977 194.936 23.5112 194.936 23.5112Z" fill="white"/>
<path d="M201.678 9.49243C203.597 11.0436 202.956 13.623 202.366 15.8581L199.836 15.6283L199.111 11.8579L197.482 15.4143L187.589 14.8587L189.224 10.0848" fill="#0F1011"/>
<path d="M181.806 27.9112C184.867 27.9112 187.348 25.4349 187.348 22.3803C187.348 19.3256 184.867 16.8494 181.806 16.8494C178.745 16.8494 176.264 19.3256 176.264 22.3803C176.264 25.4349 178.745 27.9112 181.806 27.9112Z" fill="#0F1011"/>
<path d="M215.861 45.7229C215.861 45.7229 219.036 41.1662 218.973 39.8903C218.91 38.6144 215.27 37.1596 215.27 37.1596C215.27 37.1596 215.857 36.0606 216.39 34.8491C217.006 33.4511 217.551 31.9039 217.042 31.7239C216.551 31.5501 215.736 32.8075 214.976 34.2765C213.999 36.1641 213.11 38.4004 213.11 38.4004C213.11 38.4004 213.131 36.1522 212.293 36.2573C211.948 36.3003 211.785 36.6992 211.71 38.308C211.625 40.1411 211.208 42.9863 211.208 42.9863L215.861 45.7229Z" fill="#E98862"/>
<path d="M205.5 66.3282C206.357 66.3673 207.207 66.1502 207.94 65.7047C208.673 65.2592 209.256 64.6055 209.615 63.8273L218.236 45.1417L210.399 41.5406L207.787 47.1983L206.368 37.9309L197.839 39.2341L201.431 62.6798C201.571 63.595 202.003 64.4407 202.663 65.0915C203.323 65.7422 204.175 66.1633 205.094 66.2923C205.23 66.3094 205.365 66.3214 205.5 66.3282Z" fill="#D98797"/>
<path d="M220.194 51.5306L215.438 50.5489C215.25 50.5102 215.074 50.4325 214.919 50.3209C214.764 50.2092 214.634 50.0662 214.539 49.9012C214.443 49.7361 214.383 49.5528 214.364 49.3631C214.344 49.1735 214.365 48.9818 214.424 48.8007L217.934 38.1385C218.039 37.8228 218.255 37.5563 218.544 37.3898C218.832 37.2234 219.171 37.1685 219.497 37.2358L224.254 38.2179C224.441 38.2565 224.618 38.3342 224.773 38.4457C224.928 38.5573 225.057 38.7003 225.153 38.8653C225.249 39.0303 225.308 39.2137 225.328 39.4033C225.348 39.5929 225.327 39.7846 225.268 39.9657L221.757 50.6259C221.654 50.942 221.437 51.209 221.149 51.3759C220.86 51.5427 220.521 51.5978 220.194 51.5306Z" fill="#C1D8ED"/>
<path d="M212.608 48.3502L215.259 52.3054C215.259 52.3054 222.924 51.1334 223.905 45.3265C224.018 44.6575 224.032 42.794 223.186 43.0057C220.983 43.5565 218.124 46.7619 216.206 47.1181C216.675 46.3643 217.253 45.2961 216.921 45.0804C216.049 44.5122 213.494 47.5726 212.608 48.3502Z" fill="#E98862"/>
<path d="M174.958 34.584C176.847 32.8639 180.019 31.8427 183.821 32.0125C184.004 34.2385 197.468 34.862 197.671 32.6968C198.185 32.7284 198.583 32.7545 198.831 32.7758C207.951 33.5865 207.587 40.9351 206.316 49.0171L213.987 46.0514L217.103 54.0804L204.895 58.8002C204.876 59.0371 204.859 59.2741 204.845 59.5086C204.104 72.3064 207.459 74.8791 205.572 78.7144C203.742 82.4374 171.126 82.5279 170.997 75.8253C170.916 71.5604 174.841 68.0198 175.222 59.7317C175.602 51.4437 168.447 40.5126 174.958 34.584Z" fill="#D98797"/>
<path d="M197.67 32.6968C197.468 34.862 196.14 37.9991 192.48 38.0729C187.603 38.1704 184.005 34.2385 183.822 32.0125H183.834C188.621 32.232 194.881 32.5258 197.67 32.6968Z" fill="#E98862"/>
<path d="M121.729 173.781H109.229C107.058 170.927 103.253 165.178 105.712 162.724C106.831 161.607 108.063 162.669 109.209 164.57C108.813 160.846 109.209 157.282 111.806 156.244C114.172 155.297 115.228 158.153 115.639 161.982C116.805 159.804 118.338 158.274 120.337 158.391C123.196 158.563 122.504 162.369 120.834 166.584C122.1 165.62 123.431 165.148 124.721 165.569C127.428 166.454 124.901 170.244 121.729 173.781Z" fill="#8DDBE0"/>
<path d="M333.388 173.781H298.787C296.888 168.663 302.591 166.139 304.406 169.455C303.324 167.477 303.037 164.969 305.283 163.355C307.637 162.075 310.471 163.538 310.905 165.853C310.327 162.771 313.076 159.699 316.136 159.001C323.988 157.209 325.739 165.237 325.027 166.498C327.1 162.821 335.675 167.36 333.388 173.781Z" fill="#8DDBE0"/>
<path d="M61.2865 21.1747C61.9272 15.4236 64.6332 12.1406 67.9518 10.5613C71.2264 9.00464 80.9621 8.48432 83.7223 15.9248C85.5235 20.7797 84.3937 22.2994 84.1698 29.6972C83.9458 37.0949 86.4185 38.1752 87.9397 47.36C89.1327 54.5651 77.2486 56.8662 67.3843 55.3415C57.52 53.8167 51.5106 50.8625 51.7034 44.4992C51.9799 35.3666 60.0305 32.4478 61.2865 21.1747Z" fill="#0F1011"/>
<path d="M65.2505 37.7745C65.2505 37.7745 68.4215 36.5252 68.6704 28.3071L74.9824 27.8557C74.9824 27.8557 73.4658 35.0787 76.3326 37.7484L65.2505 37.7745Z" fill="#E98862"/>
<g opacity="0.15">
<path d="M75.2374 36.0802L70.5432 31.5759L74.5823 31.9877C74.5437 33.3807 74.7659 34.7687 75.2374 36.0802Z" fill="black"/>
</g>
<path d="M65.5176 24.7548C65.6676 27.2739 66.753 29.765 68.8444 30.8084C71.1154 32.0184 73.6483 32.6548 76.222 32.662C83.0535 32.8686 83.4461 17.3384 80.5692 13.99C77.6922 10.6416 68.0472 11.4717 66.3374 16.3402C65.453 18.8578 65.3747 22.3576 65.5176 24.7548Z" fill="#E98862"/>
<path d="M75.4777 23.944C75.7894 23.944 76.042 23.6915 76.042 23.3801C76.042 23.0686 75.7894 22.8162 75.4777 22.8162C75.166 22.8162 74.9134 23.0686 74.9134 23.3801C74.9134 23.6915 75.166 23.944 75.4777 23.944Z" fill="#0F1011"/>
<path d="M79.9424 24.0792C80.2541 24.0792 80.5068 23.8268 80.5068 23.5153C80.5068 23.2039 80.2541 22.9514 79.9424 22.9514C79.6308 22.9514 79.3781 23.2039 79.3781 23.5153C79.3781 23.8268 79.6308 24.0792 79.9424 24.0792Z" fill="#0F1011"/>
<path d="M81.0785 22.4319C81.0675 22.4318 81.0564 22.4311 81.0454 22.4299L79.562 22.2443C79.4921 22.2355 79.4287 22.1994 79.3855 22.1438C79.3423 22.0883 79.323 22.0179 79.3318 21.9481C79.3406 21.8784 79.3767 21.8149 79.4323 21.7718C79.4879 21.7287 79.5583 21.7094 79.6282 21.7181L81.1112 21.9042C81.1777 21.913 81.2384 21.9467 81.281 21.9985C81.3237 22.0503 81.345 22.1163 81.3409 22.1832C81.3368 22.2502 81.3074 22.313 81.2587 22.3592C81.21 22.4053 81.1456 22.4313 81.0785 22.4319Z" fill="#0F1011"/>
<path d="M74.411 22.2306C74.3435 22.2306 74.2784 22.2049 74.2292 22.1587C74.1799 22.1124 74.1502 22.0491 74.1461 21.9817C74.1419 21.9143 74.1637 21.8479 74.207 21.796C74.2502 21.7441 74.3116 21.7106 74.3787 21.7025L75.8832 21.5149C75.9527 21.5076 76.0224 21.5276 76.0775 21.5705C76.1326 21.6135 76.1689 21.6761 76.1788 21.7453C76.1874 21.8149 76.168 21.8851 76.1248 21.9405C76.0817 21.9959 76.0183 22.0319 75.9486 22.0407L74.4441 22.2286C74.4331 22.2299 74.4221 22.2305 74.411 22.2306Z" fill="#0F1011"/>
<path d="M75.2401 27.8225C75.2401 27.8225 77.2856 28.2736 78.7936 27.9299C78.7936 27.9299 78.6288 29.292 76.9756 29.241C75.3223 29.1901 75.2401 27.8225 75.2401 27.8225Z" fill="white"/>
<path d="M70.7929 18.8658C69.2868 29.9961 67.6842 34.1936 67.6842 34.1936C67.6842 34.1936 63.1797 27.1726 63.2054 20.3209C63.2303 13.8977 68.3322 10.6769 71.5734 10.3259C83.8909 8.99221 83.6584 17.8232 83.6584 17.8232C82.5211 20.707 69.2206 20.9631 69.2206 20.9631" fill="#0F1011"/>
<path d="M72.3741 25.4769C72.3501 26.1073 72.0777 26.7027 71.6163 27.1333C71.155 27.5639 70.5419 27.7948 69.9109 27.7757C69.2799 27.7566 68.682 27.489 68.2475 27.0313C67.8131 26.5736 67.5773 25.9629 67.5915 25.3322C67.5957 25.0168 67.6635 24.7054 67.7906 24.4167C67.9178 24.128 68.1018 23.8678 68.3316 23.6516C68.5615 23.4354 68.8326 23.2676 69.1287 23.1583C69.4248 23.0489 69.7399 23.0002 70.0552 23.0151C71.7556 23.1505 72.4138 24.1584 72.3741 25.4769Z" fill="#E98862"/>
<g opacity="0.15">
<path d="M77.6151 26.7678C77.5689 26.7623 77.5262 26.7404 77.4947 26.7061C77.4633 26.6718 77.4452 26.6274 77.4436 26.5809C77.4421 26.5344 77.4573 26.489 77.4865 26.4527C77.5157 26.4165 77.5569 26.3918 77.6026 26.3833L78.7827 26.1619L78.1857 24.2966C78.1736 24.2485 78.1805 24.1977 78.2047 24.1544C78.2289 24.1112 78.2688 24.0788 78.3161 24.0639C78.3634 24.049 78.4146 24.0527 78.4592 24.0743C78.5039 24.0958 78.5387 24.1336 78.5564 24.1799L79.2216 26.2545C79.2301 26.2808 79.2328 26.3086 79.2297 26.336C79.2265 26.3634 79.2176 26.3898 79.2034 26.4135C79.1893 26.4373 79.1703 26.4577 79.1476 26.4735C79.125 26.4893 79.0992 26.5001 79.0721 26.5051L77.6759 26.7678C77.6557 26.771 77.6352 26.771 77.6151 26.7678Z" fill="black"/>
</g>
<path d="M55.5716 86.1624L55.4236 86.292L56.0592 84.0881L51.2688 84.2882C51.2688 84.2882 46.006 90.9188 48.2867 96.2559C48.3449 96.3918 48.4427 96.5071 48.5674 96.5865C48.6922 96.666 48.838 96.706 48.9859 96.7013C49.1338 96.6966 49.2768 96.6474 49.3962 96.5601C49.5156 96.4729 49.6059 96.3517 49.6553 96.2123C50.3995 94.1065 51.8476 90.4086 53.2461 89.0948C53.2598 89.9689 53.3497 91.1628 53.7392 91.1652C54.7642 91.1734 55.2499 87.277 55.5716 86.1624Z" fill="#E98862"/>
<path d="M76.9206 40.3921L49.0615 83.7461L56.2071 88.3309L84.0661 44.9769L76.9206 40.3921Z" fill="#A5D996"/>
<path d="M92.9653 84.1945L93.1601 84.2334L91.5052 82.6429L95.7504 80.4199C95.7504 80.4199 103.628 83.5263 104.328 89.2871C104.346 89.434 104.319 89.5829 104.251 89.7142C104.183 89.8456 104.077 89.9533 103.946 90.0233C103.816 90.0933 103.667 90.1223 103.52 90.1065C103.373 90.0907 103.234 90.0308 103.121 89.9347C101.422 88.4839 98.3154 86.0076 96.4464 85.5698C96.8724 86.3334 97.3927 87.4117 97.057 87.6087C96.1745 88.1266 93.8031 84.9985 92.9653 84.1945Z" fill="#E98862"/>
<path d="M108.582 194.534L100.46 193.568C100.825 190.497 101.239 186.807 101.267 186.202C101.267 186.241 101.267 186.273 101.267 186.298H109.445C109.444 186.543 109.444 187.288 108.582 194.534Z" fill="#E98862"/>
<path d="M25.3711 189.916L18.2011 185.985C18.2011 185.985 22.264 178.587 22.6219 177.929L29.8047 181.838C29.4461 182.496 25.3711 189.916 25.3711 189.916Z" fill="#E98862"/>
<path d="M89.267 138.563C91.9734 156.381 95.0918 175.007 97.2592 192.83L111.53 190.831C108.47 172.39 106.253 152.921 103.496 134.414C97.6708 117.508 83.024 80.1494 83.024 80.1494L53.3948 78.3223C53.3948 78.3223 47.644 122.708 45.4564 136.881L18.1848 181.588L30.3695 189.275L59.9877 143.995C60.5244 143.167 60.8941 142.241 61.0758 141.271C61.142 140.926 63.1571 129.89 63.2136 129.605C65.1998 119.262 70.2749 97.4527 70.2749 97.4527C76.608 111.127 83.8999 124.754 89.267 138.563Z" fill="#262626"/>
<path d="M32.5902 197.443C32.7839 197.548 32.9971 197.611 33.2164 197.629C33.4357 197.648 33.6565 197.621 33.8649 197.55C34.0732 197.479 34.2647 197.366 34.4274 197.218C34.59 197.07 34.7203 196.889 34.8101 196.689C34.9347 196.411 34.9772 196.103 34.9326 195.801C34.8879 195.5 34.758 195.218 34.5581 194.988L27.7227 187.64C27.5899 187.499 27.4281 187.387 27.2483 187.314C27.0685 187.241 26.8749 187.207 26.6809 187.215C25.0969 187.387 23.4997 187.046 22.1242 186.242C21.0772 185.572 20.2398 184.622 19.7072 183.499C19.6642 183.394 19.592 183.302 19.499 183.236C19.4061 183.17 19.2961 183.131 19.1821 183.125C19.068 183.118 18.9545 183.145 18.8548 183.2C18.7551 183.256 18.6734 183.339 18.619 183.439L16.3928 187.526C16.3272 187.646 16.286 187.778 16.2717 187.915C16.2573 188.051 16.2701 188.189 16.3092 188.321C16.3483 188.452 16.413 188.575 16.4996 188.681C16.5862 188.788 16.693 188.876 16.8138 188.941L32.5902 197.443Z" fill="#C1D8ED"/>
<path d="M118.546 198.671C118.766 198.67 118.984 198.624 119.185 198.535C119.386 198.447 119.567 198.317 119.716 198.156C119.865 197.994 119.979 197.803 120.051 197.596C120.123 197.388 120.151 197.168 120.134 196.949C120.11 196.645 120 196.354 119.817 196.111C119.633 195.868 119.384 195.682 119.098 195.575L109.579 192.389C109.395 192.328 109.199 192.308 109.006 192.329C108.813 192.351 108.627 192.414 108.46 192.514C107.152 193.421 105.586 193.885 103.994 193.837C102.754 193.749 101.564 193.314 100.559 192.583C100.47 192.51 100.363 192.465 100.25 192.451C100.137 192.437 100.022 192.456 99.9186 192.504C99.8154 192.553 99.7283 192.631 99.6674 192.727C99.6065 192.824 99.5743 192.935 99.5745 193.05V197.701C99.5745 197.838 99.6016 197.974 99.6543 198.101C99.707 198.227 99.7842 198.342 99.8815 198.439C99.9788 198.536 100.094 198.613 100.221 198.665C100.348 198.717 100.484 198.744 100.622 198.743L118.546 198.671Z" fill="#C1D8ED"/>
<path d="M98.0915 79.6965L84.5024 65.7584C84.5231 64.943 84.5601 64.0849 84.6212 63.168C85.3328 52.3951 91.8025 38.03 78.9292 36.7726C78.685 36.7477 78.2928 36.7185 77.7873 36.6831C77.57 38.815 64.3248 38.0865 64.1635 35.8912C60.4224 35.6915 57.2915 36.6695 55.4174 38.3503C48.9593 44.1377 55.9081 54.9764 55.4633 63.1369C55.0186 71.2974 51.1251 74.7567 51.1691 78.9605C51.2381 85.5667 83.3387 85.7543 85.1731 82.1004C85.6262 81.2069 85.829 80.2077 85.76 79.2084L92.0093 85.6177L98.0915 79.6965Z" fill="#A5D996"/>
<path d="M77.7873 36.6832C77.57 38.8151 76.2357 41.8954 72.6335 41.937C67.833 41.9915 64.3248 38.0842 64.1635 35.8909H64.1752C68.8846 36.1481 75.0443 36.491 77.7873 36.6832Z" fill="#E98862"/>
<path d="M442.111 194.94L435.366 193.97C435.67 190.882 436.013 187.173 436.036 186.565C436.036 186.604 436.036 186.636 436.036 186.661H442.828C442.827 186.907 442.827 187.657 442.111 194.94Z" fill="#E98862"/>
<path d="M359.335 131.916C358.772 131.592 352.429 127.914 352.429 127.914L355.365 120.506C355.365 120.506 361.689 124.173 362.249 124.497L359.335 131.916Z" fill="#E98862"/>
<path d="M346.511 135.569C346.434 135.769 346.391 135.986 346.386 136.207C346.381 136.428 346.414 136.648 346.482 136.852C346.55 137.057 346.652 137.243 346.783 137.398C346.913 137.553 347.068 137.674 347.238 137.753C347.475 137.862 347.732 137.888 347.98 137.826C348.228 137.765 348.457 137.619 348.639 137.406L354.424 130.145C354.536 130.004 354.621 129.836 354.674 129.652C354.726 129.467 354.745 129.271 354.73 129.077C354.515 127.498 354.725 125.878 355.329 124.454C355.837 123.367 356.588 122.475 357.495 121.879C357.581 121.83 357.654 121.753 357.705 121.656C357.756 121.559 357.783 121.446 357.783 121.331C357.783 121.217 357.756 121.104 357.705 121.007C357.654 120.91 357.581 120.833 357.495 120.784L354.003 118.777C353.9 118.717 353.788 118.683 353.674 118.676C353.56 118.669 353.446 118.69 353.339 118.736C353.232 118.783 353.133 118.854 353.048 118.947C352.964 119.04 352.896 119.152 352.847 119.277L346.511 135.569Z" fill="#C1D8ED"/>
<path d="M432.703 193.178L444.566 191.267C443.987 181.637 443.545 156.985 441.789 137.944C441.422 133.987 440.646 130.102 439.477 126.38C434.259 109.73 424.122 79.9605 424.122 79.9605L399.517 78.1218C399.517 78.1218 392.37 117.921 389.071 130.073L357.796 119.628L354.402 133.507C369.353 138.347 378.851 143.03 385.262 145.711C398.074 151.068 398.564 148.433 405.615 123.087C407.07 117.852 412.176 100.161 412.77 98.0157C418.495 110.561 424.536 123.006 429.006 136.027C431.245 154.797 432.152 179.348 432.703 193.178Z" fill="#262626"/>
<path d="M450.388 199.1C450.57 199.099 450.751 199.052 450.918 198.963C451.085 198.873 451.235 198.743 451.359 198.581C451.483 198.418 451.577 198.227 451.637 198.018C451.697 197.809 451.72 197.588 451.706 197.367C451.686 197.062 451.595 196.77 451.443 196.525C451.29 196.281 451.083 196.094 450.846 195.987L442.941 192.785C442.788 192.723 442.625 192.703 442.465 192.724C442.305 192.746 442.15 192.809 442.012 192.909C440.925 193.822 439.625 194.288 438.303 194.239C437.273 194.151 436.285 193.714 435.45 192.979C435.377 192.906 435.288 192.86 435.194 192.846C435.1 192.832 435.004 192.851 434.919 192.9C434.833 192.949 434.76 193.027 434.71 193.124C434.659 193.221 434.633 193.334 434.633 193.448V198.126C434.633 198.264 434.655 198.4 434.699 198.528C434.743 198.655 434.807 198.771 434.888 198.868C434.969 198.966 435.064 199.043 435.17 199.095C435.275 199.147 435.388 199.174 435.502 199.174L450.388 199.1Z" fill="#C1D8ED"/>
<path d="M425.757 82.7232C424.102 86.3104 397.477 84.696 397.662 78.059C397.78 73.834 401.138 70.5382 401.807 62.3591C402.476 54.18 397.109 42.9906 402.68 37.4661C404.297 35.8622 406.93 35.0184 410.026 35.3853C410.08 37.5968 421.041 38.9167 421.3 36.7858C421.718 36.8437 422.044 36.8903 422.244 36.9263C432.877 38.761 426.982 52.8992 425.996 63.686C424.837 76.3076 427.464 79.0264 425.757 82.7232Z" fill="#D0A6C7"/>
<path d="M453.977 50.6844L455.918 54.6785C455.918 54.6785 460.855 54.1665 462.693 48.6776C463.302 46.8585 461.613 45.9928 461.163 46.3993C459.675 47.7426 458.347 49.2421 456.774 49.5586C457.169 48.8208 457.658 47.7735 457.39 47.5541C456.686 46.9775 453.977 50.6844 453.977 50.6844Z" fill="#E98862"/>
<path d="M411.498 74.8093L409.111 78.4322C409.111 78.4322 411.275 83.8237 416.171 83.9328C417.793 83.9688 417.856 81.7511 417.381 81.39C415.811 80.1926 414.179 79.2291 413.37 77.5661C414.082 77.7472 415.065 77.9248 415.138 77.5442C415.331 76.5423 411.498 74.8093 411.498 74.8093Z" fill="#E98862"/>
<path d="M436.874 69.4285C436.294 69.429 435.723 69.2564 435.211 68.9261C434.699 68.5957 434.263 68.1178 433.941 67.5347L421.251 44.5981L427.112 39.8545L437.987 59.5109L453.758 48.7796L457.215 56.2124L438.6 68.8789C438.073 69.2389 437.478 69.4282 436.874 69.4285Z" fill="#D0A6C7"/>
<path d="M408.948 81.3561L388.443 67.3055C388.002 67.0035 387.62 66.5901 387.323 66.0933C387.026 65.5966 386.821 65.0283 386.723 64.4271C386.624 63.8259 386.633 63.2061 386.75 62.6097C386.867 62.0133 387.089 61.4545 387.401 60.9713L402.352 37.7957L407.912 43.0428L395.475 62.3209L412.424 73.9343L408.948 81.3561Z" fill="#D0A6C7"/>
<path d="M421.3 36.7848C421.041 38.9157 419.821 41.9486 416.831 41.8312C412.846 41.6724 410.079 37.595 410.026 35.3835H410.036C413.933 35.8518 419.031 36.4699 421.3 36.7848Z" fill="#E98862"/>
<path d="M413.994 29.8702L414.008 29.7857C414.122 29.1112 414.221 28.3731 414.302 27.5664L414.926 27.5817L419.557 27.6869C419.239 29.0259 419.024 30.3977 418.915 31.7847C418.905 31.9412 418.895 32.1031 418.887 32.2651C418.879 32.427 418.87 32.5999 418.867 32.7709C418.865 32.8065 418.865 32.8464 418.864 32.8863C418.858 33.1961 418.859 33.5036 418.873 33.8107C418.872 33.8728 418.875 33.9348 418.881 33.9965C418.879 34.0071 418.879 34.018 418.881 34.0286C418.885 34.1612 418.894 34.2997 418.908 34.4307C418.919 34.5813 418.934 34.7284 418.955 34.8775C418.96 34.9229 418.965 34.9721 418.974 35.0179C418.992 35.1662 419.017 35.3121 419.045 35.4549C419.074 35.618 419.11 35.7784 419.149 35.936L419.15 35.9365L419.151 35.9375L419.151 35.9389L419.151 35.9404C419.294 36.5655 419.546 37.1466 419.889 37.6448L411.831 35.9423C412.522 35.0034 413.459 33.0079 413.994 29.8702Z" fill="#E98862"/>
<path opacity="0.15" d="M419.153 35.9424L415.607 31.009L418.917 31.7863C418.781 33.1774 418.861 34.587 419.153 35.9424Z" fill="black"/>
<path d="M411.96 23.726C411.896 26.2613 412.607 28.8534 414.259 30.0868C416.22 31.5507 417.779 32.0037 420.223 32.6092C423.558 33.4354 424.16 29.2015 424.972 24.9856C425.787 20.7529 426.28 16.1184 425.213 14.3083C423.084 10.696 415.045 10.6573 413.267 15.3759C412.348 17.8162 412.021 21.3131 411.96 23.726Z" fill="#E98862"/>
<path d="M429.328 13.4912C429.67 11.4668 428.15 7.63382 421.818 10.8311L421.812 10.8338C420.377 10.4274 418.902 10.2608 417.429 10.3385C414.733 10.628 411.11 12.4154 410.869 18.8666C410.601 26.0646 412.648 28.512 413.692 29.6636C413.958 29.9566 414.061 29.7974 414.236 29.4164C414.821 27.9927 415.317 26.5179 415.719 25.0045C416.182 23.5492 416.535 22.046 416.773 20.5136C416.888 19.8368 417.309 17.3707 420.09 18.0314C421.654 18.4031 421.057 18.3334 422.724 18.7465C422.961 18.8056 423.174 18.8443 423.371 18.8717H423.373C429.125 20.296 428.984 15.5156 429.328 13.4912Z" fill="#0F1011"/>
<path d="M420.301 23.8165C420.559 23.8165 420.769 23.5628 420.769 23.2497C420.769 22.9366 420.559 22.6829 420.301 22.6829C420.042 22.6829 419.832 22.9366 419.832 23.2497C419.832 23.5628 420.042 23.8165 420.301 23.8165Z" fill="#0F1011"/>
<path d="M423.983 24.3549C424.242 24.3549 424.452 24.1011 424.452 23.788C424.452 23.475 424.242 23.2212 423.983 23.2212C423.725 23.2212 423.515 23.475 423.515 23.788C423.515 24.1011 423.725 24.3549 423.983 24.3549Z" fill="#0F1011"/>
<path d="M424.98 22.802H424.977L423.764 22.482C423.735 22.4746 423.709 22.4605 423.685 22.4406C423.661 22.4206 423.641 22.3952 423.625 22.3658C423.61 22.3364 423.599 22.3035 423.594 22.2691C423.589 22.2346 423.589 22.1993 423.595 22.1652C423.6 22.13 423.611 22.0965 423.627 22.0667C423.643 22.0369 423.664 22.0115 423.689 21.9923C423.713 21.9731 423.741 21.9604 423.77 21.9552C423.799 21.9499 423.829 21.9521 423.857 21.9617L425.071 22.2817C425.126 22.2982 425.174 22.3401 425.205 22.3987C425.235 22.4572 425.246 22.5278 425.234 22.5955C425.222 22.6632 425.189 22.7227 425.141 22.7614C425.094 22.8001 425.036 22.815 424.98 22.8028V22.802Z" fill="#0F1011"/>
<path d="M419.48 21.9978C419.428 21.9844 419.381 21.9483 419.349 21.8961C419.317 21.8439 419.301 21.7794 419.306 21.7146C419.31 21.6498 419.334 21.5893 419.373 21.5444C419.412 21.4995 419.463 21.4733 419.517 21.4708L420.775 21.4188C420.804 21.417 420.834 21.4222 420.861 21.4342C420.889 21.4462 420.914 21.4647 420.936 21.4886C420.957 21.5125 420.974 21.5414 420.987 21.5736C420.999 21.6057 421.006 21.6405 421.007 21.6759C421.008 21.7112 421.003 21.7465 420.992 21.7796C420.982 21.8126 420.966 21.8429 420.946 21.8685C420.926 21.8942 420.902 21.9147 420.875 21.9289C420.848 21.9431 420.819 21.9507 420.79 21.9512L419.532 22.0033C419.515 22.004 419.497 22.0022 419.48 21.9978Z" fill="#0F1011"/>
<path d="M417.682 24.0167C417.651 24.3301 417.569 24.633 417.441 24.908C417.313 25.183 417.141 25.4248 416.936 25.6196C416.73 25.8144 416.495 25.9584 416.244 26.0433C415.993 26.1282 415.73 26.1524 415.471 26.1145C415.212 26.0766 414.961 25.9774 414.734 25.8225C414.507 25.6675 414.307 25.46 414.146 25.2116C413.985 24.9632 413.866 24.6789 413.795 24.3749C413.725 24.0709 413.705 23.7531 413.736 23.4397C413.764 23.1243 413.843 22.8187 413.97 22.5412C414.096 22.2636 414.268 22.0197 414.474 21.824C414.681 21.6284 414.917 21.4849 415.17 21.4022C415.423 21.3194 415.688 21.2992 415.947 21.3425C417.345 21.6316 417.814 22.6992 417.682 24.0167Z" fill="#E98862"/>
<g opacity="0.15">
<path d="M421.817 26.8349C421.779 26.8256 421.745 26.8001 421.721 26.763C421.697 26.726 421.685 26.6797 421.687 26.6329C421.689 26.586 421.705 26.5416 421.732 26.5077C421.759 26.4738 421.795 26.4528 421.834 26.4484L422.826 26.331L422.471 24.4099C422.461 24.3592 422.469 24.3062 422.492 24.2624C422.515 24.2186 422.551 24.1876 422.593 24.1763C422.635 24.165 422.679 24.1743 422.715 24.2021C422.751 24.2299 422.777 24.274 422.786 24.3246L423.181 26.4617C423.186 26.4887 423.186 26.5168 423.182 26.5439C423.177 26.571 423.168 26.5967 423.154 26.6191C423.141 26.6416 423.124 26.6603 423.104 26.6741C423.084 26.6879 423.062 26.6964 423.039 26.6992L421.864 26.8361C421.848 26.8382 421.833 26.8378 421.817 26.8349Z" fill="black"/>
</g>
<path d="M419.772 27.6755C419.772 27.6755 421.43 28.3116 422.703 28.1039C422.703 28.1039 422.465 29.452 421.101 29.2525C419.738 29.0529 419.772 27.6755 419.772 27.6755Z" fill="#F8FCFF"/>
</g>
<defs>
<clipPath id="clip0_164_1741">
<rect width="556" height="198" fill="white"/>
</clipPath>
</defs>
</svg>
