<svg width="44" height="44" viewBox="0 0 44 44" fill="none" xmlns="http://www.w3.org/2000/svg">
<path d="M10.9067 38.1733C12.9145 38.1733 14.5422 36.5456 14.5422 34.5377C14.5422 32.5299 12.9145 30.9022 10.9067 30.9022C8.89881 30.9022 7.27112 32.5299 7.27112 34.5377C7.27112 36.5456 8.89881 38.1733 10.9067 38.1733Z" stroke="black" stroke-width="3.63555" stroke-linecap="round" stroke-linejoin="round"/>
<path d="M30.9022 38.1733C32.9101 38.1733 34.5378 36.5456 34.5378 34.5377C34.5378 32.5299 32.9101 30.9022 30.9022 30.9022C28.8944 30.9022 27.2667 32.5299 27.2667 34.5377C27.2667 36.5456 28.8944 38.1733 30.9022 38.1733Z" stroke="black" stroke-width="3.63555" stroke-linecap="round" stroke-linejoin="round"/>
<path d="M30.9022 30.9022H10.9067V5.45331H7.27112" stroke="black" stroke-width="3.63555" stroke-linecap="round" stroke-linejoin="round"/>
<path d="M10.9067 9.08887L21.8224 9.86869M34.7977 21.8169L34.5378 23.6311H10.9067" stroke="black" stroke-width="3.63555" stroke-linecap="round" stroke-linejoin="round"/>
<path d="M27.2667 10.9066H38.1733M32.72 5.45331V16.36" stroke="black" stroke-width="3.63555" stroke-linecap="round" stroke-linejoin="round"/>
</svg>
