<svg width="44" height="44" viewBox="0 0 44 44" fill="none" xmlns="http://www.w3.org/2000/svg">
<path d="M10.9067 21.8133C12.9145 21.8133 14.5422 20.1856 14.5422 18.1778C14.5422 16.1699 12.9145 14.5422 10.9067 14.5422C8.89881 14.5422 7.27112 16.1699 7.27112 18.1778C7.27112 20.1856 8.89881 21.8133 10.9067 21.8133Z" stroke="black" stroke-width="3.63555" stroke-linecap="round" stroke-linejoin="round"/>
<path d="M10.9067 7.27112V14.5422" stroke="black" stroke-width="3.63555" stroke-linecap="round" stroke-linejoin="round"/>
<path d="M10.9067 21.8133V36.3555" stroke="black" stroke-width="3.63555" stroke-linecap="round" stroke-linejoin="round"/>
<path d="M21.8133 32.72C23.8211 32.72 25.4488 31.0923 25.4488 29.0844C25.4488 27.0765 23.8211 25.4489 21.8133 25.4489C19.8054 25.4489 18.1777 27.0765 18.1777 29.0844C18.1777 31.0923 19.8054 32.72 21.8133 32.72Z" stroke="black" stroke-width="3.63555" stroke-linecap="round" stroke-linejoin="round"/>
<path d="M21.8133 7.27112V25.4489" stroke="black" stroke-width="3.63555" stroke-linecap="round" stroke-linejoin="round"/>
<path d="M21.8133 32.72V36.3555" stroke="black" stroke-width="3.63555" stroke-linecap="round" stroke-linejoin="round"/>
<path d="M32.72 16.36C34.7278 16.36 36.3555 14.7323 36.3555 12.7244C36.3555 10.7166 34.7278 9.08887 32.72 9.08887C30.7121 9.08887 29.0844 10.7166 29.0844 12.7244C29.0844 14.7323 30.7121 16.36 32.72 16.36Z" stroke="black" stroke-width="3.63555" stroke-linecap="round" stroke-linejoin="round"/>
<path d="M32.72 7.27112V9.08889" stroke="black" stroke-width="3.63555" stroke-linecap="round" stroke-linejoin="round"/>
<path d="M32.72 16.36V36.3555" stroke="black" stroke-width="3.63555" stroke-linecap="round" stroke-linejoin="round"/>
</svg>
