<svg width="44" height="44" viewBox="0 0 44 44" fill="none" xmlns="http://www.w3.org/2000/svg">
<path d="M27.2667 34.5378V30.9022C27.2667 29.938 27.6497 29.0133 28.3315 28.3315C29.0133 27.6497 29.938 27.2667 30.9022 27.2667H34.5378" stroke="black" stroke-width="3.63555" stroke-linecap="round" stroke-linejoin="round"/>
<path d="M27.2667 9.08887V12.7244C27.2667 13.6886 27.6497 14.6133 28.3315 15.2951C29.0133 15.9769 29.938 16.36 30.9022 16.36H34.5378" stroke="black" stroke-width="3.63555" stroke-linecap="round" stroke-linejoin="round"/>
<path d="M9.08887 27.2667H12.7244C13.6886 27.2667 14.6133 27.6497 15.2951 28.3315C15.9769 29.0133 16.36 29.938 16.36 30.9022V34.5378" stroke="black" stroke-width="3.63555" stroke-linecap="round" stroke-linejoin="round"/>
<path d="M9.08887 16.36H12.7244C13.6886 16.36 14.6133 15.9769 15.2951 15.2951C15.9769 14.6133 16.36 13.6886 16.36 12.7244V9.08887" stroke="black" stroke-width="3.63555" stroke-linecap="round" stroke-linejoin="round"/>
</svg>
