<svg width="44" height="44" viewBox="0 0 44 44" fill="none" xmlns="http://www.w3.org/2000/svg">
<path d="M16.36 38.1733C18.3678 38.1733 19.9955 36.5456 19.9955 34.5377C19.9955 32.5299 18.3678 30.9022 16.36 30.9022C14.3521 30.9022 12.7244 32.5299 12.7244 34.5377C12.7244 36.5456 14.3521 38.1733 16.36 38.1733Z" stroke="black" stroke-width="3.63555" stroke-linecap="round" stroke-linejoin="round"/>
<path d="M30.9022 38.1733C32.9101 38.1733 34.5378 36.5456 34.5378 34.5377C34.5378 32.5299 32.9101 30.9022 30.9022 30.9022C28.8944 30.9022 27.2667 32.5299 27.2667 34.5377C27.2667 36.5456 28.8944 38.1733 30.9022 38.1733Z" stroke="black" stroke-width="3.63555" stroke-linecap="round" stroke-linejoin="round"/>
<path d="M5.45331 5.45331H9.08886L12.7244 27.2666C13.1165 28.3818 13.8604 29.3393 14.844 29.995C15.8275 30.6507 16.9975 30.9691 18.1777 30.9022H30.9022C32.0824 30.9691 33.2524 30.6507 34.2359 29.995C35.2195 29.3393 35.9634 28.3818 36.3555 27.2666L38.1733 14.5422H10.5431" stroke="black" stroke-width="3.63555" stroke-linecap="round" stroke-linejoin="round"/>
</svg>
