<svg width="44" height="44" viewBox="0 0 44 44" fill="none" xmlns="http://www.w3.org/2000/svg">
<path d="M12.686 5.58787C14.2949 5.31375 15.9447 5.40418 17.514 5.85249C19.0832 6.3008 20.5319 7.09557 21.7531 8.1782L21.8204 8.23819L21.8822 8.18366C23.0477 7.16079 24.418 6.39823 25.9016 5.94685C27.3852 5.49548 28.948 5.36566 30.4857 5.56606L30.9329 5.6315C32.8712 5.96617 34.6829 6.81879 36.1762 8.09908C37.6695 9.37936 38.7887 11.0396 39.4154 12.9041C40.0421 14.7686 40.153 16.7678 39.7362 18.6902C39.3194 20.6125 38.3905 22.3863 37.0479 23.8238L36.7207 24.1601L36.6334 24.2346L23.091 37.648C22.7785 37.9573 22.3644 38.1428 21.9256 38.1702C21.4867 38.1977 21.0528 38.0651 20.7043 37.797L20.5334 37.648L6.91279 24.1565C5.46987 22.7525 4.4437 20.9766 3.94792 19.0254C3.45214 17.0741 3.5061 15.0238 4.10381 13.1013C4.70153 11.1789 5.81969 9.45937 7.33444 8.13325C8.8492 6.80714 10.7014 5.92616 12.686 5.58787Z" fill="black"/>
</svg>
