<svg width="40" height="40" viewBox="0 0 40 40" fill="none" xmlns="http://www.w3.org/2000/svg">
<path d="M6.57855 11.5125H32.8928" stroke="black" stroke-width="3.28928" stroke-linecap="round" stroke-linejoin="round"/>
<path d="M16.4464 18.0911V27.9589" stroke="black" stroke-width="3.28928" stroke-linecap="round" stroke-linejoin="round"/>
<path d="M23.025 18.0911V27.9589" stroke="black" stroke-width="3.28928" stroke-linecap="round" stroke-linejoin="round"/>
<path d="M8.22321 11.5125L9.86785 31.2481C9.86785 32.1205 10.2144 32.9571 10.8313 33.574C11.4481 34.1909 12.2848 34.5374 13.1571 34.5374H26.3142C27.1866 34.5374 28.0233 34.1909 28.6401 33.574C29.257 32.9571 29.6035 32.1205 29.6035 31.2481L31.2482 11.5125" stroke="black" stroke-width="3.28928" stroke-linecap="round" stroke-linejoin="round"/>
<path d="M14.8018 11.5125V6.57854C14.8018 6.14235 14.975 5.72403 15.2835 5.4156C15.5919 5.10717 16.0102 4.9339 16.4464 4.9339H23.025C23.4611 4.9339 23.8795 5.10717 24.1879 5.4156C24.4963 5.72403 24.6696 6.14235 24.6696 6.57854V11.5125" stroke="black" stroke-width="3.28928" stroke-linecap="round" stroke-linejoin="round"/>
</svg>
