<svg width="44" height="44" viewBox="0 0 44 44" fill="none" xmlns="http://www.w3.org/2000/svg">
<path d="M7.27112 14.5422V10.9067C7.27112 9.94246 7.65415 9.01774 8.33595 8.33595C9.01774 7.65415 9.94246 7.27112 10.9067 7.27112H14.5422" stroke="black" stroke-width="3.63555" stroke-linecap="round" stroke-linejoin="round"/>
<path d="M7.27112 29.0844V32.72C7.27112 33.6842 7.65415 34.6089 8.33595 35.2907C9.01774 35.9725 9.94246 36.3555 10.9067 36.3555H14.5422" stroke="black" stroke-width="3.63555" stroke-linecap="round" stroke-linejoin="round"/>
<path d="M29.0844 7.27112H32.72C33.6842 7.27112 34.6089 7.65415 35.2907 8.33595C35.9725 9.01774 36.3555 9.94246 36.3555 10.9067V14.5422" stroke="black" stroke-width="3.63555" stroke-linecap="round" stroke-linejoin="round"/>
<path d="M29.0844 36.3555H32.72C33.6842 36.3555 34.6089 35.9725 35.2907 35.2907C35.9725 34.6089 36.3555 33.6842 36.3555 32.72V29.0844" stroke="black" stroke-width="3.63555" stroke-linecap="round" stroke-linejoin="round"/>
</svg>
