<svg width="44" height="44" viewBox="0 0 44 44" fill="none" xmlns="http://www.w3.org/2000/svg">
<path d="M35.4467 24.6708L21.8134 38.1733L8.1801 24.6708C7.28085 23.7958 6.57253 22.744 6.09974 21.5818C5.62695 20.4195 5.39992 19.172 5.43296 17.9177C5.466 16.6634 5.75839 15.4295 6.29171 14.2938C6.82504 13.158 7.58775 12.145 8.53181 11.3185C9.47588 10.492 10.5808 9.86993 11.7771 9.49145C12.9734 9.11298 14.2351 8.9863 15.4828 9.11939C16.7304 9.25249 17.937 9.64247 19.0265 10.2648C20.1161 10.8871 21.0649 11.7283 21.8134 12.7353C22.5651 11.7356 23.5151 10.9018 24.6039 10.286C25.6927 9.67034 26.8968 9.28599 28.141 9.15705C29.3851 9.02812 30.6425 9.15738 31.8344 9.53674C33.0263 9.91609 34.1271 10.5374 35.0678 11.3617C36.0086 12.1861 36.769 13.1957 37.3016 14.3275C37.8342 15.4592 38.1275 16.6888 38.1631 17.9391C38.1986 19.1894 37.9757 20.4336 37.5083 21.5938C37.0409 22.754 36.3391 23.8052 35.4467 24.6817" stroke="black" stroke-width="3.63555" stroke-linecap="round" stroke-linejoin="round"/>
</svg>
