<svg width="71" height="71" viewBox="0 0 71 71" fill="none" xmlns="http://www.w3.org/2000/svg">
<path d="M35.4906 8.87266C35.881 8.87266 36.2685 8.87266 36.6529 8.87266C32.8535 12.4031 30.4113 17.1533 29.7509 22.2976C29.0905 27.4419 30.2536 32.655 33.038 37.0306C35.8225 41.4063 40.0522 44.6679 44.992 46.2485C49.9318 47.8291 55.2693 47.6288 60.0767 45.6823C58.2274 50.1319 55.205 53.996 51.3318 56.8625C47.4586 59.7291 42.8799 61.4904 38.0841 61.9588C33.2884 62.4271 28.4554 61.5848 24.1008 59.5218C19.7462 57.4587 16.0333 54.2523 13.3581 50.2446C10.6829 46.2368 9.14586 41.578 8.91084 36.7652C8.67581 31.9523 9.75166 27.1659 12.0236 22.9166C14.2956 18.6673 17.6784 15.1143 21.8113 12.6368C25.9442 10.1593 30.6721 8.85016 35.4906 8.849V8.87266Z" stroke="black" stroke-width="2" stroke-linecap="round" stroke-linejoin="round"/>
<path d="M50.2782 11.8302C50.2782 13.399 50.9014 14.9035 52.0107 16.0128C53.12 17.1221 54.6246 17.7453 56.1933 17.7453C54.6246 17.7453 53.12 18.3685 52.0107 19.4778C50.9014 20.5871 50.2782 22.0916 50.2782 23.6604C50.2782 22.0916 49.6551 20.5871 48.5458 19.4778C47.4365 18.3685 45.9319 17.7453 44.3632 17.7453C45.9319 17.7453 47.4365 17.1221 48.5458 16.0128C49.6551 14.9035 50.2782 13.399 50.2782 11.8302Z" stroke="black" stroke-width="2" stroke-linecap="round" stroke-linejoin="round"/>
<path d="M56.1934 32.533H62.1084M59.1509 29.5754V35.4905" stroke="black" stroke-width="2" stroke-linecap="round" stroke-linejoin="round"/>
</svg>
