<svg width="400" height="347" viewBox="0 0 400 347" fill="none" xmlns="http://www.w3.org/2000/svg">
<path fill-rule="evenodd" clip-rule="evenodd" d="M209.756 0C308.052 0 328.748 136 329.15 137.119C329.564 138.272 329.955 139.459 330.332 140.611C331.098 142.95 332.085 145.202 332.852 147.526C333.321 148.944 334.183 150.118 334.761 151.457C335.882 154.014 337.255 156.455 338.861 158.742C339.524 159.648 340.045 160.648 340.406 161.71C340.659 162.523 341.5 162.74 341.862 163.457C342.449 164.617 343.232 165.678 343.91 166.793C344.064 167.185 344.418 167.463 344.836 167.522L344.704 168.628C344.95 169.027 345.033 168.488 345.29 168.583C345.611 169.015 346.069 169.398 346.116 170.056C346.158 170.674 346.881 170.732 347.128 171.271C347.67 172.441 349.178 173.038 349.156 174.573C350.24 175.252 350.773 176.419 351.591 177.334C352.011 177.755 352.267 178.31 352.316 178.899L352.323 179.035C352.317 179.621 353.45 179.49 353.145 180.289C354.879 181.589 355.329 183.711 356.245 185.471C357.714 188.292 359.407 191.019 360.404 194.11C360.904 195.656 361.873 197.118 362.411 198.683C363.622 202.202 365.077 205.644 365.864 209.309C366.188 210.822 366.851 212.265 367.162 213.782L367.52 215.536C368.054 218.169 368.56 220.809 368.895 223.477C369.068 224.078 369.068 224.716 368.895 225.318C368.606 226.003 369.374 226.442 369.436 227.129C369.513 227.944 369.186 228.716 369.421 229.582C369.551 230.058 369.421 230.824 369.57 231.378C370.053 233.176 369.441 235.032 369.967 236.818C370.05 237.509 369.977 238.209 369.754 238.868C369.39 241.068 370.055 243.314 369.392 245.461C369.082 246.521 369.022 247.636 369.218 248.72L369.3 249.138C369.358 249.448 369.397 249.749 369.245 249.958C368.64 250.783 368.796 251.755 368.676 252.658L368.653 252.807C368.479 253.817 368.658 254.876 368.353 255.905C367.935 256.913 367.701 257.986 367.661 259.075C367.815 260.922 367.192 262.58 366.811 264.295C366.62 265.151 366.778 266.17 365.833 266.807C365.353 267.131 366.487 267.76 365.799 268.235L365.718 268.285C365.214 268.57 365.236 269.028 365.378 269.578C365.508 270.08 364.629 270.427 364.881 270.941C365.132 271.454 365.246 272.203 364.952 272.297C364.218 272.538 364.964 273.335 364.348 273.486C364.287 273.519 364.245 273.578 364.235 273.646C364.024 275.575 362.78 277.159 362.472 279.087C362.239 280.238 361.79 281.335 361.148 282.321C360.617 283.271 360.165 284.264 359.798 285.29C359.108 287.014 357.927 288.454 357.262 290.169C357.081 290.634 355.876 290.478 356.489 291.432C355.786 291.679 355.999 292.406 355.717 292.86C355.405 293.203 355.042 293.497 354.641 293.73C354.382 294.75 353.884 295.697 353.19 296.49C351.975 298.263 350.65 299.958 349.221 301.564L348.041 302.883C346.463 304.642 344.835 306.363 342.756 307.576C342.222 307.888 342.465 308.479 342.025 308.799C339.477 310.678 337.129 312.808 334.229 314.232C333.016 314.829 331.975 315.888 330.734 316.508C328.384 317.687 326.201 319.153 323.686 320.071L323.239 320.227C321.637 320.759 320.061 321.565 318.435 322.151C315.095 323.46 311.609 324.365 308.052 324.844L305.859 325.087C303.908 325.302 301.955 325.5 299.985 325.554C299.053 325.579 298.159 325.284 297.305 325.39C296.474 325.495 295.63 325.427 294.826 325.191C294.191 325.014 293.654 325.559 292.97 325.266C292.446 324.938 291.795 324.889 291.23 325.129L291.118 325.18C290.794 325.368 290.156 325.021 289.662 324.91C288.941 324.81 288.233 324.635 287.55 324.389C287.02 324.144 286.344 324.93 285.975 324.094C285.305 324.614 239.764 313.81 197.931 335.749C194.525 338.002 190.538 338.992 186.898 340.742C185.206 341.557 183.304 341.93 181.482 342.486L181.093 342.608C177.877 343.646 174.58 344.354 171.287 345.094C168.262 345.748 165.196 346.203 162.111 346.455C159.893 346.655 157.664 346.748 155.451 346.99C154.554 347.087 153.674 346.456 152.796 346.998C150.823 346.462 148.752 347.113 146.785 346.507C145.476 346.893 144.247 346.414 143.044 346.061C142.126 345.789 141.261 346.353 140.334 345.953C139.489 345.513 138.544 345.303 137.592 345.345C136.012 345.586 134.637 345.008 133.199 344.702C129.855 343.991 126.524 343.223 123.204 342.397C122.117 342.126 120.896 342.23 119.965 341.401C119.148 340.672 117.858 341.129 117.056 340.268C116.763 339.956 116.389 340.562 115.948 340.325C115.087 339.864 113.981 340.168 113.176 339.336C112.58 338.72 111.456 339.137 110.796 338.392L110.71 338.284C110.32 337.744 109.293 339.016 108.989 337.814C107.761 337.72 106.744 337.052 105.651 336.594C104.745 336.216 103.676 336.43 102.859 335.643C102.163 334.972 100.847 335.465 100.244 334.46C98.7675 334.447 97.6794 333.345 96.2728 333.055C95.2054 332.775 94.1801 332.354 93.2248 331.803C91.7101 331.025 90.1723 330.292 88.6228 329.598C88.0672 329.34 87.5263 329.051 87.0021 328.733C86.7083 328.562 86.6371 328.182 86.2172 328.09C83.5605 327.502 81.3265 325.956 79.0572 324.604C77.7627 323.936 76.5249 323.167 75.3544 322.303L74.9664 322.011C74.6239 321.717 73.9125 321.572 73.6115 321.163C72.7717 320.025 71.5159 319.468 70.3768 318.784L70.1884 318.669C69.5465 318.292 68.9635 317.823 68.4567 317.279C68.3608 317.174 68.3221 316.949 68.2201 316.924C66.3298 316.458 65.2013 314.899 63.756 313.81C62.5126 312.873 61.4256 311.732 60.2012 310.777L59.7348 310.429C56.8701 308.383 25.5197 273.943 21.9673 268L20.9507 266.299C19.9355 264.595 18.932 262.878 18.0082 261.128L17.2214 259.638C16.4358 258.144 15.6625 256.64 14.9789 255.11L14.0644 253.067C12.2396 248.98 10.454 244.872 8.93212 240.652C7.57506 236.887 6.45155 233.06 5.31734 229.23C4.59085 226.771 3.97698 224.3 3.45837 221.795C2.62985 217.791 1.89097 213.77 1.2419 209.734C0.636503 205.933 0.860409 202.076 0.0519592 198.318C0.58162 196.011 -0.392208 193.669 0.212461 191.364C-0.23608 190.226 0.158362 189.045 0.200519 187.922C0.243742 186.764 -0.0164908 185.551 0.446794 184.377C0.659039 183.844 0.168397 183.203 0.434236 182.552C0.726032 182.011 0.759724 181.367 0.526063 180.798C1.31377 180.436 0.374868 179.88 0.701982 179.365C1.05466 178.806 1.21045 178.146 1.14475 177.489C0.915348 176.019 1.76382 174.661 1.61487 173.332C1.45953 171.974 2.13158 170.822 2.12951 169.604L2.12082 169.375C2.00483 167.777 3.14942 166.573 3.1876 165.061C3.19118 164.929 3.5045 164.807 3.67622 164.675C3.62117 164.335 3.24433 164.412 2.97703 164.147C3.40376 163.777 3.77713 163.351 4.08653 162.879C4.32069 162.232 4.48702 161.563 4.58278 160.882L3.49778 159.485C3.89816 158.685 3.75857 157.958 4.29317 157.332C4.52582 157.057 4.39609 156.221 4.4248 155.642C4.46269 154.884 5.43977 154.431 5.20404 153.832C5.02223 153.142 5.08115 152.411 5.3711 151.76C6.76897 145.607 8.19285 139.461 9.64275 133.32C9.79523 132.662 9.66254 131.834 10.4739 131.449C9.5873 130.535 10.9796 130.216 11.0012 129.492C11.1142 128.814 11.3756 128.171 11.7667 127.605C12.3204 126.549 12.3713 125.236 12.6867 124.045C12.7698 123.203 13.0894 122.402 13.6087 121.732C14.1488 121.174 14.071 120.201 14.4776 119.417C15.0521 118.47 15.4974 117.451 15.8016 116.386C15.8933 115.621 16.1988 114.897 16.6832 114.296C17.1134 113.822 16.7601 112.841 17.5962 112.483C17.8307 111.107 18.6536 110.002 19.2629 108.796L19.3744 108.569C20.8709 105.467 22.5529 102.457 24.4114 99.5549C25.9554 97.113 27.4577 94.6454 29.0253 92.2187C29.5353 91.4351 30.0776 90.6549 30.6383 89.9111C32.5864 87.176 34.6848 84.5505 36.9237 82.0465C38.9716 79.88 40.9237 77.6161 43.0736 75.533C44.2167 74.4248 45.1517 73.0643 46.2617 71.8873C48.877 69.1085 51.5623 66.4052 54.3866 63.8396C56.772 61.4873 59.3805 59.3706 62.1757 57.5198C62.9358 57.058 63.5604 56.3819 64.2942 55.871C65.1844 55.3812 66.0388 54.8294 66.8511 54.2188C67.7957 53.3317 68.9551 52.7675 69.9092 51.9459C70.6498 51.3085 71.8349 51.6722 72.3652 50.5249C72.7515 49.6904 74.1979 49.9966 74.6845 49.0216C76.0198 48.9768 76.6432 47.6862 77.8558 47.262L78.0173 47.2122C79.2949 46.8641 80.3853 45.8348 81.5569 45.105C82.6877 44.3058 83.87 43.5827 85.0977 42.9413C87.4018 41.9053 89.3903 40.327 91.6428 39.2569C93.7899 38.2383 95.7223 36.7468 98.0645 36.1793C98.6178 36.0455 98.5147 35.558 98.8953 35.3504C99.2917 35.1327 99.7256 35.2771 100.083 35.0263C101.564 34.0614 111.459 0 209.756 0Z" fill="#96B9D9"/>
<path fill-rule="evenodd" clip-rule="evenodd" d="M111.591 65.1387C108.213 67.0447 103.267 64.6134 102.712 60.7743C104.867 60.6591 107.169 60.4909 108.873 59.1667C110.577 57.8419 111.173 54.9089 109.465 53.5893C95.5642 51.882 82.0409 47.1594 70.0999 39.8402C78.2537 37.3835 85.2694 32.2013 92.9285 28.4774C100.587 24.7536 109.85 22.5515 117.489 26.3168C124.989 30.0142 133.623 25.2979 141.45 22.354C155.059 17.2351 170.665 17.6642 183.972 23.5232C193.681 27.7983 210.133 20.8598 220.621 19.2683C237.753 16.6688 254.478 28.6761 271.681 26.5968C269.835 27.8173 267.99 29.0373 266.144 30.2578C267.962 30.092 269.789 30.0246 271.614 30.0568C257.337 36.8888 243.061 43.7201 228.784 50.552C232.401 52.0151 236.017 53.4781 239.634 54.9412C238.784 57.6668 235.736 59.5077 232.928 58.9916C235.187 60.7899 237.447 62.5882 239.707 64.3864C237.295 66.0994 234.242 66.8868 231.302 66.5533C234.433 68.5745 237.017 71.4344 238.711 74.7533C246.169 72.2684 254.339 71.9625 261.961 73.8824C255.074 74.7855 248.187 75.6887 241.3 76.5913C242.34 79.4229 243.38 82.2551 244.42 85.0867C253.417 83.0275 262.979 83.4958 271.732 86.4236C263.052 86.6448 254.373 86.8654 245.693 87.0866C245.49 98.602 239.757 110.345 229.691 115.942C219.624 121.538 199.509 126.514 192.847 110.22C187.746 113.568 188.107 121.615 191.744 126.514C195.38 131.413 201.158 134.124 206.384 137.273C223.742 147.735 236.834 165.059 242.16 184.613C247.485 204.168 244.985 225.738 235.328 243.556C248.348 245.58 260.445 252.99 268.166 263.667C284.789 255.932 293.997 238.282 306.731 225.09C321.216 210.083 341.213 200.517 361.987 198.657C374.279 197.556 388.296 199.926 395.466 209.97C404.785 223.025 396.192 243.324 381.317 249.326C369.526 254.083 356.226 251.691 343.543 252.589C318.038 254.397 295.647 269.436 274.616 283.978C273.758 288.687 275.48 293.784 279.016 297.009C286.539 289.233 296.028 283.375 306.351 280.134C310.166 278.936 315.885 279.248 316.309 283.225C316.47 284.73 315.678 286.157 314.877 287.442C307.995 298.475 298.291 307.731 286.945 314.084C280.957 317.438 274.265 320.038 267.413 319.654C260.559 319.27 253.581 315.315 251.254 308.858C250.175 305.865 250.058 302.402 248.015 299.964C244.559 295.839 237.922 297.074 233.077 299.417C228.233 301.76 223.069 304.945 217.872 303.555C204.877 300.08 191.353 298.59 177.913 299.152C160.798 299.868 143.358 303.853 126.776 299.555C121.237 298.119 115.038 295.854 110.13 298.798C100.459 304.6 106.982 323.172 97.0607 328.534C93.5459 330.433 89.2392 329.732 85.3621 328.77C68.2284 324.517 52.1575 316.049 38.9628 304.321C37.6912 303.191 36.3811 301.921 36.0246 300.257C34.9554 295.267 42.321 293.191 47.3398 294.115C55.8652 295.684 64.019 299.238 70.9725 304.415C73.4096 306.23 77.1184 304.113 78.1506 301.255C79.1834 298.397 78.4732 295.25 78.07 292.238C75.5246 273.214 87.4594 253.212 105.411 246.419C94.5424 230.558 90.4096 210.237 94.2199 191.392C98.0301 172.546 109.733 155.426 125.909 145.034C132.371 140.882 139.796 137.487 143.914 131.003C148.033 124.52 146.225 113.643 138.691 112.148C131.592 119.836 120.047 123.088 109.979 120.234C99.9113 117.381 91.7891 108.554 89.7801 98.2852C83.0979 100.541 76.4163 102.798 69.7341 105.055C75.6652 100.484 82.6883 97.3417 90.049 95.965C90.7552 92.9042 91.4614 89.8439 92.1682 86.783C79.4178 85.9605 66.4878 88.0589 54.6527 92.8713C61.9356 87.389 71.2023 84.6034 80.3008 85.1604C89.5554 85.7272 98.9632 81.1993 104.293 73.6122C100.958 72.4401 97.9616 70.3238 95.7411 67.5729C99.1424 65.7268 103.261 65.2487 106.994 66.2659M177 265.878C176.393 266.469 175.739 267.171 175.783 268.017C175.825 268.862 177.094 269.494 177.532 268.769C179.922 264.811 184.077 261.965 188.631 261.168C193.185 260.37 198.06 261.636 201.652 264.547C202.905 265.562 204.024 266.777 205.456 267.519C205.971 267.786 206.853 267.794 206.875 267.213C206.881 267.023 206.773 266.85 206.665 266.692C204.086 262.89 200.229 259.972 195.87 258.523C192.048 257.254 187.62 257.174 184.203 259.303C182.961 260.076 181.903 261.105 180.855 262.125C179.57 263.376 178.285 264.627 177 265.878ZM158.467 258.961C153.52 258.307 148.193 259.967 144.898 263.716C144.317 264.377 143.789 265.12 143.589 265.977C143.39 266.834 143.578 267.825 144.241 268.402C146.79 264.443 151.319 261.832 156.022 261.609C160.726 261.388 165.481 263.561 168.391 267.263C168.846 267.842 169.28 268.475 169.926 268.828C170.572 269.182 171.512 269.137 171.905 268.514C172.375 267.77 171.807 266.819 171.228 266.158C167.94 262.403 163.415 259.615 158.467 258.961ZM193.367 253.896C193.29 254.733 194.395 255.253 195.19 254.979C195.984 254.705 196.511 253.973 197.042 253.323C201.465 247.914 209.888 246.284 216.009 249.653C216.812 248.975 216.858 247.674 216.321 246.771C215.784 245.867 214.803 245.313 213.801 244.993C211.633 244.3 209.278 244.536 207.047 244.988C201.766 246.056 196.432 248.56 193.655 253.177C193.521 253.4 193.391 253.636 193.367 253.896ZM172.605 271.446C170.435 271.597 168.311 272.172 166.279 272.949C163.471 274.024 160.706 275.589 159.062 278.107C161.472 278.79 163.783 276.993 165.985 275.797C170.925 273.117 177.333 273.394 182.023 276.491C183.494 277.463 185.385 278.718 186.819 277.692C183.463 273.485 177.975 271.073 172.605 271.446ZM181.522 270.089C183.168 269.232 184.484 267.838 186.117 266.955C188.366 265.739 191.168 265.598 193.527 266.584C194.808 267.119 195.942 267.956 197.205 268.534C198.467 269.112 199.971 269.412 201.228 268.824C201.367 268.758 201.512 268.672 201.571 268.53C201.666 268.299 201.496 268.049 201.332 267.861C198.517 264.648 194.108 262.908 189.858 263.332C185.609 263.756 181.63 266.334 179.506 270.039C179.95 270.623 180.872 270.428 181.522 270.089ZM148.553 270.242C149.435 269.741 150.125 268.966 150.931 268.35C152.544 267.119 154.645 266.551 156.66 266.786C158.906 267.046 160.932 268.235 162.789 269.525C163.332 269.902 163.887 270.298 164.531 270.448C165.176 270.598 165.943 270.435 166.307 269.884C166.667 269.338 166.523 268.576 166.137 268.048C165.751 267.52 165.172 267.172 164.608 266.841C162.312 265.495 159.886 264.148 157.227 264.011C153.904 263.84 150.816 265.572 147.943 267.248C146.777 267.929 145.439 268.959 145.685 270.285C146.483 270.912 147.671 270.744 148.553 270.242ZM163.517 257.363C164.117 258.139 165.291 257.307 165.953 256.583C167.993 254.355 170.934 252.975 173.952 252.829C176.97 252.685 180.028 253.776 182.272 255.8C182.839 256.31 183.435 256.913 184.197 256.933C184.959 256.954 185.645 255.891 185.041 255.427C181.806 252.941 178.042 250.91 173.971 250.642C169.901 250.373 165.513 252.2 163.628 255.818C163.376 256.303 163.183 256.931 163.517 257.363ZM199.509 256.682C200.047 256.455 200.44 255.993 200.851 255.579C203.984 252.429 209.29 251.724 213.135 253.949C214.097 254.505 215.544 255.119 216.103 254.158C216.569 253.358 215.738 252.426 214.945 251.945C209.773 248.809 202.4 250.004 198.482 254.613C198.083 255.082 197.701 255.726 197.975 256.278C198.234 256.8 198.972 256.909 199.509 256.682ZM202.368 256.978C202.146 257.164 201.924 257.372 201.831 257.647C201.57 258.413 202.5 259.129 203.307 259.065C204.114 259.001 204.799 258.482 205.531 258.137C207.316 257.296 209.46 257.496 211.272 258.278C211.988 258.588 212.682 258.987 213.454 259.104C214.226 259.22 215.126 258.964 215.478 258.267C212.409 254.462 206.12 253.844 202.368 256.978ZM153.835 255.518C154.294 255.734 154.919 255.692 155.213 255.281C155.614 254.721 155.185 253.96 154.759 253.419C153.319 251.587 151.769 249.784 149.789 248.555C147.809 247.326 145.315 246.735 143.11 247.488C142.885 248.303 143.899 248.856 144.696 249.134C147.768 250.205 150.557 252.079 152.708 254.519C153.043 254.899 153.377 255.303 153.835 255.518ZM180.982 257.562C177.356 255.25 172.408 255.21 168.745 257.462C168.109 257.853 167.455 258.403 167.405 259.149C167.356 259.895 168.368 260.587 168.871 260.033C170.894 257.803 174.591 257.34 177.102 259.003C178.334 259.82 180.104 259.708 181.225 258.744C181.755 258.688 181.43 257.849 180.982 257.562ZM207.352 270.072C202.201 269.724 197.408 272.755 193.669 276.315C193.942 276.944 194.87 276.777 195.499 276.505C199.757 274.663 204.015 272.82 208.272 270.977C208.592 270.554 207.882 270.108 207.352 270.072ZM158.329 272.366C158.962 272.725 159.583 273.213 160.311 273.214C161.039 273.215 161.761 272.338 161.299 271.775C159.845 270.002 157.559 268.941 155.266 268.976C152.972 269.012 150.72 270.141 149.32 271.958C149.493 272.618 150.301 272.923 150.976 272.824C151.651 272.726 152.246 272.345 152.873 272.074C154.605 271.323 156.687 271.435 158.329 272.366ZM183.871 271.882C183.813 272.389 184.388 272.777 184.898 272.749C185.408 272.722 185.855 272.423 186.302 272.177C188.179 271.143 190.489 270.931 192.522 271.606C193.825 272.039 195.451 272.746 196.391 271.746C196.474 271.175 195.9 270.744 195.39 270.472C193.564 269.501 191.554 268.768 189.486 268.788C187.417 268.807 185.283 269.674 184.102 271.373C183.995 271.527 183.893 271.695 183.871 271.882ZM180.027 249.626C182.156 250.388 184.139 251.556 185.838 253.049C186.538 253.665 187.209 254.347 188.058 254.731C188.908 255.114 190.011 255.124 190.676 254.471C189.205 253.342 187.996 251.873 187.171 250.212C186.727 249.318 185.544 249.153 184.546 249.105C183.087 249.034 181.63 248.962 180.171 248.891C180.017 249.098 179.963 249.376 180.027 249.626ZM161.007 254.746C161.76 254.043 162.316 253.157 163.011 252.397C164.09 251.218 165.511 250.357 167.054 249.945C167.72 249.767 168.596 249.426 168.495 248.745C166.609 248.417 164.456 248.153 162.968 249.358C160.884 251.046 159.232 253.263 158.21 255.743C159.216 255.965 160.254 255.449 161.007 254.746ZM144.237 253.892C145.589 254.773 146.941 255.654 148.293 256.535C148.866 256.908 149.596 257.29 150.19 256.952C150.741 256.639 150.825 255.831 150.538 255.266C150.251 254.701 149.703 254.322 149.177 253.968C148.076 253.227 146.976 252.486 145.875 251.745C144.953 251.124 143.451 250.629 142.95 251.621C142.517 252.476 143.434 253.369 144.237 253.892ZM172.704 264.482C173.222 264.996 173.946 265.551 174.604 265.236C174.904 265.092 175.097 264.798 175.274 264.517C175.86 263.59 176.447 262.664 177.033 261.738C175.498 260.031 172.486 259.986 170.9 261.645C170.778 261.772 170.66 261.918 170.638 262.093C170.603 262.37 170.818 262.61 171.016 262.807C171.578 263.366 172.142 263.924 172.704 264.482ZM149.045 277.729C150.144 278.115 151.442 278.229 152.411 277.584C150.952 275.905 149.241 274.444 147.353 273.266C146.817 272.932 146.214 272.609 145.589 272.698C144.964 272.787 144.411 273.497 144.713 274.052C145.642 275.751 147.216 277.088 149.045 277.729ZM209.37 264.234C209.89 263.606 210.409 262.978 210.929 262.35C211.108 262.134 211.297 261.889 211.286 261.609C211.272 261.253 210.946 260.997 210.635 260.822C209.555 260.215 208.281 259.961 207.05 260.11C206.58 260.166 206.09 260.294 205.759 260.633C205.429 260.972 205.333 261.575 205.666 261.912C206.42 262.676 207.175 263.441 207.929 264.205C208.176 264.454 208.488 264.726 208.831 264.651C209.058 264.602 209.222 264.412 209.37 264.234ZM155.149 250.669C155.615 251.171 156.2 251.684 156.883 251.628C158.346 251.507 158.818 248.981 160.28 249.119C160.672 248.473 159.602 247.955 158.845 247.943C156.886 247.912 154.928 247.881 152.97 247.85C153.609 248.853 154.339 249.797 155.149 250.669ZM167.243 278.193C171.316 278.175 175.39 278.158 179.464 278.14C179.107 277.335 178.151 277.008 177.288 276.829C174.462 276.243 171.498 276.333 168.711 277.088C168.087 277.257 167.375 277.561 167.243 278.193ZM192.395 273.906C191.047 273.967 189.699 274.029 188.352 274.089C187.917 274.109 187.358 274.235 187.304 274.667C187.281 274.86 187.378 275.046 187.471 275.216C187.828 275.864 188.207 276.536 188.823 276.944C189.44 277.351 190.367 277.392 190.846 276.83C191.214 276.399 191.242 275.727 191.681 275.368C191.963 275.136 192.355 275.091 192.667 274.902C192.98 274.712 193.178 274.222 192.889 274C192.753 273.895 192.566 273.899 192.395 273.906ZM157.496 276.161C157.856 275.599 157.516 274.804 156.955 274.443C156.394 274.081 155.692 274.037 155.026 274.004C154.29 273.968 153.32 274.103 153.188 274.829C153.125 275.174 153.301 275.513 153.471 275.82C153.971 276.723 154.706 277.756 155.731 277.654C156.527 277.576 157.065 276.834 157.496 276.161ZM210.739 268.078C211.344 268.129 211.886 267.718 212.31 267.285C213.605 265.961 214.428 264.186 214.602 262.343C214.174 262.069 213.649 262.494 213.321 262.882C212.219 264.185 211.117 265.488 210.015 266.792C209.623 267.255 210.134 268.028 210.739 268.078ZM143.318 258.846C143.932 259.615 145.118 259.856 145.984 259.388C146.427 259.148 146.801 258.672 146.713 258.176C146.635 257.734 146.233 257.435 145.862 257.182C145.325 256.817 144.79 256.451 144.254 256.086C144.09 255.974 143.902 255.857 143.708 255.897C143.574 255.924 143.467 256.023 143.377 256.126C142.729 256.867 142.703 258.077 143.318 258.846ZM190.917 250.728C191.56 251.268 192.514 250.71 193.153 250.164C193.846 249.572 194.539 248.979 195.232 248.387C194.84 248.012 194.213 248.097 193.682 248.207C192.139 248.526 190.596 248.845 189.053 249.164C189.674 249.685 190.296 250.206 190.917 250.728ZM215.149 243.158C215.538 243.642 216.355 243.537 216.801 243.105C217.247 242.673 217.411 242.035 217.539 241.428C217.569 241.282 217.598 241.124 217.537 240.988C217.381 240.642 216.868 240.746 216.524 240.906C215.599 241.338 214.51 242.362 215.149 243.158Z" fill="white"/>
<path fill-rule="evenodd" clip-rule="evenodd" d="M94.2198 191.393C98.0301 172.548 111.058 156.772 127.234 146.379C119.056 157.591 93.9566 175.977 102.024 196.461C114.919 229.204 165.084 234.354 163.339 234.71C133.668 240.759 91.383 205.425 94.2198 191.393Z" fill="#E7EAEE"/>
<path fill-rule="evenodd" clip-rule="evenodd" d="M189.126 27.8513C187.061 28.1019 185.243 29.755 184.797 31.786C201.506 22.8021 221.687 20.4929 239.993 25.469C240.008 34.7011 233.532 43.5807 224.737 46.3864L205.669 52.4696C210.699 53.0277 215.868 52.2898 220.541 50.347C222.201 52.9632 224.936 54.8744 227.964 55.5327L222.103 56.8184C222.967 59.4512 224.731 61.78 227.033 63.3237C225.08 62.655 222.907 62.6481 220.95 63.3047L222.262 68.0705C213.619 66.8713 204.384 68.0481 197.105 72.8588C189.826 77.6696 184.938 86.5129 186.249 95.1391C187.784 85.7601 194.212 77.3222 202.845 73.3507C211.479 69.3786 222.068 69.9892 230.189 74.9261L224.68 79.0059C226.796 79.8474 229.303 79.6326 231.244 78.4431C235.484 80.3192 234.31 88.0761 229.705 88.6136L235.797 89.0375C236.852 99.3951 230.454 110.077 220.823 114.034C211.192 117.99 199.132 114.892 192.601 106.783C184.495 110.923 185.063 123.47 190.84 130.504C194.874 135.414 200.428 138.604 205.992 141.799C208.397 143.181 210.806 144.564 213.093 146.088C225.244 154.181 234.301 166.802 238.079 180.905C231.481 185.323 225.612 190.827 220.78 197.128C227.929 196.795 234.93 193.878 240.202 189.038L241.328 199.927C235.54 201.71 230.34 205.348 226.681 210.174C231.84 210.7 237.159 209.495 241.587 206.798C240.001 219.328 237.138 231.696 233.058 243.649L219.754 243.54C222.91 234.817 226.108 225.433 223.782 216.453C221.457 207.473 211.027 200.061 202.818 204.38C212.26 196.77 219.409 186.353 223.114 174.807L199.339 205.495L181.095 205.65C180.521 197.054 179.97 188.244 182.414 179.983C184.857 171.722 190.958 163.988 199.365 162.104C200.277 161.9 201.248 161.733 202.232 161.565C206.341 160.861 210.673 160.119 211.879 156.406C198.252 155.613 184.591 164.337 179.579 177.034C176.007 186.081 176.636 196.167 177.321 205.87C164.722 204.053 151.822 204.345 139.319 206.73C137.149 199.331 134.898 191.767 130.344 185.543C125.792 179.321 118.4 174.601 110.727 175.37C123.083 177.206 129.204 190.936 133.863 202.526C138.522 214.116 146.98 227.355 159.42 226.208C162.962 225.882 164.09 231.701 161.375 233.999C158.659 236.298 154.626 235.86 151.15 235.1C133.248 231.182 116.534 221.99 103.638 208.97C101.127 206.434 98.6994 203.66 97.5388 200.286C96.1074 196.123 96.7744 191.525 98.0053 187.298C104.294 165.705 123.645 150.909 142.037 137.964C151.931 130.999 151.576 113.738 141.404 107.186C133.874 114.028 123.834 118.813 113.72 117.697C103.608 116.581 94.0361 108.3 93.7101 98.1308C96.8862 97.8509 99.9994 96.8757 102.768 95.294C100.051 94.3281 96.9881 94.3695 94.2976 95.4081C93.5661 92.6674 94.1001 89.6152 95.7192 87.2865L101.486 86.6701C100.326 85.3597 98.7092 84.4617 96.9841 84.1709C101.146 77.237 110.803 75.3391 118.544 77.6822C126.283 80.0254 132.552 85.6074 138.549 91.0328C132.296 77.3222 115.339 72.9032 100.535 70.0934L106.994 66.2659C103.261 65.2487 99.1424 65.7268 95.7411 67.5729C97.9616 70.3238 100.958 72.4401 104.293 73.6122C98.9632 81.1993 89.5554 85.7272 80.3008 85.1604C71.2023 84.6034 61.9356 87.389 54.6527 92.8713C66.4878 88.0589 79.4178 85.9605 92.1682 86.783L90.049 95.965C82.6883 97.3417 75.6652 100.484 69.7341 105.055L89.7801 98.2852C91.7891 108.554 99.9113 117.381 109.979 120.234C120.047 123.088 131.592 119.836 138.691 112.148C146.225 113.643 148.033 124.52 143.914 131.003C140.654 136.137 135.32 139.334 130.032 142.505C128.642 143.338 127.255 144.169 125.909 145.034C109.733 155.426 98.0301 172.546 94.2199 191.392C90.4096 210.237 94.5424 230.558 105.411 246.419C87.4594 253.212 75.5246 273.214 78.07 292.238C78.1282 292.674 78.1927 293.113 78.2578 293.553C78.6419 296.154 79.0342 298.81 78.1506 301.255C77.1184 304.113 73.4096 306.23 70.9725 304.415C64.019 299.238 55.8652 295.684 47.3398 294.115C42.321 293.191 34.9554 295.267 36.0246 300.257C36.3811 301.921 37.6912 303.191 38.9628 304.321C52.1575 316.049 68.2284 324.517 85.3621 328.77C89.2392 329.732 93.5459 330.433 97.0607 328.534C102.064 325.829 102.885 319.766 103.711 313.675C104.522 307.688 105.336 301.674 110.13 298.798C114.459 296.201 119.794 297.657 124.793 299.022L124.796 299.023C125.463 299.205 126.125 299.386 126.776 299.555C138.666 302.636 150.995 301.461 163.33 300.284C168.2 299.82 173.069 299.355 177.913 299.152C191.353 298.59 204.877 300.08 217.872 303.555C222.397 304.766 226.897 302.508 231.182 300.357C231.819 300.037 232.451 299.72 233.077 299.417C237.922 297.074 244.559 295.839 248.015 299.964C249.382 301.595 249.887 303.684 250.394 305.785V305.786H250.394V305.787V305.788L250.395 305.789V305.79V305.79H250.395V305.792V305.793C250.646 306.829 250.897 307.869 251.254 308.858C253.581 315.315 260.559 319.27 267.413 319.654C274.265 320.038 280.957 317.438 286.945 314.084C298.291 307.731 307.995 298.475 314.877 287.442C315.678 286.157 316.47 284.73 316.309 283.225C315.885 279.248 310.166 278.936 306.351 280.134C296.028 283.375 286.539 289.233 279.016 297.009C275.48 293.784 273.758 288.687 274.616 283.978C295.647 269.436 318.038 254.397 343.543 252.589C347.542 252.306 351.601 252.35 355.656 252.393C364.462 252.489 373.243 252.583 381.317 249.326C396.192 243.324 404.785 223.025 395.466 209.97C388.296 199.926 374.279 197.556 361.987 198.657C341.213 200.517 321.216 210.083 306.731 225.09C302.706 229.26 299.033 233.874 295.368 238.481C287.436 248.449 279.535 258.377 268.166 263.667C260.445 252.99 248.348 245.58 235.328 243.556C244.985 225.738 247.485 204.168 242.16 184.613C236.834 165.059 223.742 147.735 206.384 137.273C205.438 136.703 204.474 136.148 203.508 135.591L203.508 135.59C199.137 133.071 194.722 130.526 191.744 126.514C188.107 121.615 187.746 113.568 192.847 110.22C199.63 119.527 213.864 121.538 223.931 115.942C233.997 110.345 239.73 98.602 239.933 87.0866L265.972 86.4236C257.219 83.4958 247.657 83.0275 238.66 85.0867L235.54 76.5913L256.201 73.8824C248.579 71.9625 240.409 72.2684 232.951 74.7533C231.257 71.4344 228.673 68.5745 225.542 66.5533C228.482 66.8868 231.535 66.0994 233.947 64.3864L227.168 58.9916C229.976 59.5077 233.024 57.6668 233.874 54.9412L223.024 50.552L265.854 30.0568C264.029 30.0246 262.202 30.092 260.384 30.2578L265.921 26.5968C257.468 27.6186 249.13 25.2392 240.803 22.8626C232.183 20.4031 223.575 17.9464 214.861 19.2683C211.438 19.7879 207.993 20.8765 204.567 21.96C197.498 24.1943 190.512 26.4032 183.972 23.5232C170.665 17.6642 155.059 17.2351 141.45 22.354C140.246 22.8067 139.023 23.3015 137.789 23.8009C130.995 26.5496 123.835 29.4457 117.489 26.3168C109.85 22.5515 100.587 24.7536 92.9285 28.4774C90.2397 29.7844 87.6304 31.2716 85.0234 32.7571C80.2035 35.5035 75.3916 38.2458 70.0999 39.8402C82.0409 47.1594 95.5642 51.882 109.465 53.5893C111.173 54.9089 110.577 57.8419 108.873 59.1667C107.169 60.4909 104.867 60.6591 102.712 60.7743C103.267 64.6134 108.213 67.0447 111.591 65.1387C110.172 65.4025 110.066 63.0962 110.655 61.7783L114.336 53.553C117.195 54.6025 120.752 52.9183 121.752 50.0423C114.674 50.8942 107.329 51.7231 100.548 49.521C93.7671 47.319 87.7082 41.1753 88.0261 34.0525C103.127 25.3037 123.399 26.4885 137.378 36.9366C136.298 33.787 133.645 31.2203 130.461 30.2463C134.138 26.6267 139.018 24.2513 144.135 23.5912C141.095 25.996 139.702 30.2959 140.754 34.0266L154.402 21.4738C152.163 25.4874 150.909 30.0459 150.78 34.64C155.842 31.3321 159.874 26.4729 162.192 20.888L168.264 21.7405C164.547 24.8809 162.476 29.8713 162.877 34.7207C167.504 31.8447 171.09 27.3335 172.85 22.1783C178.551 23.0993 184.087 25.0295 189.126 27.8513ZM356.834 250.068C353.782 249.967 350.727 249.865 347.69 249.952C325.088 250.593 304.075 261.602 285.426 274.389L285.233 274.522L285.023 274.666L284.655 274.919L284.64 274.929C281.101 277.363 277.528 279.821 273.488 281.256L268.742 267.424C268.487 266.682 268.33 265.662 269.02 265.289C276.277 261.365 282.904 256.277 288.57 250.281C292.345 246.285 295.694 241.895 299.039 237.509C303.775 231.299 308.503 225.098 314.425 220.045C323.88 211.975 335.784 207.357 347.728 203.912C356.567 201.363 365.83 199.363 374.922 200.763C384.014 202.163 392.966 207.59 396.3 216.164C398.949 222.974 397.653 231.007 393.573 237.068C389.492 243.13 382.868 247.254 375.77 248.985C369.596 250.49 363.221 250.279 356.834 250.068ZM96.7681 279.369C97.2462 280.506 97.5474 282.023 96.5936 282.804C95.3644 283.811 93.6214 282.514 92.5886 281.307L83.7873 271.022C81.6803 276.5 80.7138 282.413 80.9667 288.276C81.0174 289.451 81.113 290.644 81.2092 291.84V291.841L81.2098 291.842V291.843V291.844V291.845C81.5778 296.425 81.9505 301.066 79.8291 305.038C78.8988 306.779 77.316 308.378 75.3449 308.506C74.2281 308.579 73.1406 308.17 72.1095 307.734C69.2837 306.539 66.4993 305.07 63.7161 303.602C56.5506 299.823 49.3915 296.047 41.5457 296.948C40.4742 297.071 39.14 297.599 39.1819 298.677C39.2006 299.159 39.5154 299.574 39.8216 299.948C51.1333 313.763 68.8223 320.462 85.9462 325.52C88.7467 326.347 91.6981 327.152 94.5499 326.525C97.4017 325.896 100.049 323.325 99.7045 320.425C98.7933 312.753 101.197 304.744 106.183 298.841C108.173 296.485 110.689 294.388 113.709 293.761C117.418 292.99 121.044 294.519 124.614 296.024C125.531 296.411 126.445 296.796 127.355 297.14C134.335 299.779 142.179 300.066 149.333 297.946C146.536 297.91 145.193 294.557 144.614 291.82C140.858 274.092 138.861 255.993 138.662 237.873C138.641 235.903 137.259 234.161 135.592 233.11C134.18 232.221 132.571 231.727 130.971 231.235C130.681 231.145 130.392 231.057 130.103 230.965C124.277 229.119 118.787 226.218 113.98 222.443C113.374 221.968 112.777 221.478 112.18 220.987C110.34 219.475 108.499 217.961 106.387 216.878C103.59 215.442 100.128 214.857 97.3245 216.281C96.699 217.771 97.8297 219.502 99.2766 220.221C100.373 220.766 101.601 220.914 102.825 221.062C103.218 221.109 103.61 221.156 103.997 221.216C105.84 221.503 107.634 222.103 109.278 222.983C111.004 223.908 112.64 226.35 111.101 227.561C110.469 228.059 109.585 228.023 108.784 227.965L99.7466 227.301C101.95 233.294 104.758 239.065 108.116 244.498C108.418 244.985 108.82 245.527 109.393 245.532C118.247 245.612 128.134 246.852 133.745 253.701C134.808 254.999 135.681 256.875 134.769 258.284C129.626 252.074 121.581 248.376 113.519 248.515C105.456 248.654 97.544 252.628 92.6186 259.012C96.9662 261.922 100.422 266.145 102.415 270.983C103.016 272.443 102.905 274.833 101.326 274.8L91.8393 263.184C91.4153 262.665 90.9056 262.102 90.2357 262.081C89.6988 262.065 89.2254 262.408 88.7991 262.736C87.8764 263.445 86.9185 264.197 86.437 265.256C85.9554 266.316 86.1346 267.774 87.1379 268.363C91.4147 270.875 94.8466 274.797 96.7681 279.369ZM204.924 297.547C211.015 292.465 213.003 284.097 214.639 276.334L220.633 247.887C220.698 247.583 220.771 247.261 220.99 247.041C221.279 246.749 221.731 246.717 222.141 246.705C233.069 246.375 244.703 247.416 253.504 253.901C249.913 255.682 246.773 258.365 244.456 261.636C243.806 262.554 243.263 263.934 244.1 264.685C244.414 264.967 244.851 265.067 245.272 265.097C247.37 265.246 249.286 263.935 250.819 262.495C251.15 262.185 251.475 261.864 251.8 261.543C252.982 260.373 254.169 259.198 255.67 258.511C257.582 257.636 260.239 257.881 261.294 259.701C257.883 261.438 255.072 264.329 253.431 267.787C253.004 268.687 252.651 269.728 252.997 270.662C253.343 271.597 254.705 272.146 255.374 271.407L261.964 264.132C262.283 263.78 262.726 263.394 263.172 263.556C263.412 263.644 263.57 263.872 263.707 264.088C267.2 269.568 268.588 275.949 269.982 282.358C270.798 286.11 271.617 289.872 272.861 293.469C273.858 296.35 275.783 299.586 278.831 299.589C280.516 299.59 282.007 298.553 283.34 297.524C284.766 296.423 286.185 295.269 287.61 294.108C294.312 288.655 301.166 283.077 309.606 282.409C310.937 282.304 312.644 282.597 312.956 283.895C313.137 284.648 312.732 285.407 312.327 286.068C306.054 296.337 296.644 304.434 286.248 310.495C280.925 313.598 275.089 316.263 268.928 316.31C262.767 316.358 256.243 313.208 253.915 307.504C253.441 306.34 253.15 305.112 252.86 303.885L252.859 303.884C252.524 302.465 252.188 301.047 251.569 299.733C249.971 296.344 246.431 293.959 242.691 293.752C239.129 293.555 235.854 295.141 232.586 296.724C231.438 297.281 230.291 297.836 229.132 298.314C221.442 301.486 212.398 301.199 204.924 297.547ZM164.257 236.306C161.963 238.263 158.879 239.044 155.872 239.265C150.455 239.662 144.928 238.394 140.226 235.676L142.166 243.019C142.25 243.335 142.349 243.676 142.612 243.871C142.84 244.041 143.142 244.062 143.426 244.077L171.303 245.542C175.367 245.755 179.436 245.969 183.504 245.851C194.914 245.522 206.239 242.543 216.335 237.216C216.918 236.909 217.511 236.582 217.93 236.074C218.43 235.469 218.628 234.676 218.795 233.909C220.209 227.423 220.454 220.684 219.513 214.113C219.283 212.499 218.961 210.844 218.054 209.489C217.146 208.134 215.514 207.144 213.912 207.449C197.508 210.573 180.763 209.608 164.018 208.643H164.018H164.017H164.016H164.016H164.015H164.014C157.703 208.279 151.392 207.916 145.1 207.771C143.976 207.745 142.795 207.74 141.807 208.278C140.821 208.815 140.141 210.091 140.648 211.094C143.517 216.771 149.446 220.393 155.593 222.027C156.035 222.145 156.487 222.26 156.944 222.376C160.921 223.388 165.3 224.501 166.743 228.203C167.839 231.011 166.55 234.349 164.257 236.306ZM208.982 284.42C207.858 288.885 205.494 293.517 201.205 295.191C199.704 295.777 198.08 295.952 196.476 296.101C181.605 297.485 166.576 297.151 151.781 295.11C150.901 294.988 149.972 294.84 149.285 294.274C148.449 293.587 148.166 292.447 147.946 291.387C147.275 288.136 146.755 284.853 146.387 281.555C146.323 280.97 146.484 280.136 147.071 280.182C156.537 280.919 166.032 281.305 175.527 281.341C182.077 281.366 188.679 281.219 195.076 279.812C201.473 278.405 207.711 275.655 212.387 271.069C211.058 273.861 210.485 276.911 209.912 279.966L209.912 279.967V279.968L209.911 279.968V279.969V279.97H209.911V279.971C209.631 281.462 209.351 282.955 208.982 284.42ZM177 265.878C176.393 266.469 175.739 267.171 175.783 268.017C175.825 268.862 177.094 269.494 177.532 268.769C179.922 264.811 184.077 261.965 188.631 261.168C193.185 260.37 198.06 261.636 201.652 264.547C202.025 264.849 202.386 265.169 202.747 265.489C203.599 266.244 204.45 266.998 205.456 267.519C205.971 267.786 206.853 267.794 206.875 267.213C206.881 267.023 206.773 266.85 206.665 266.692C204.086 262.89 200.229 259.972 195.87 258.523C192.048 257.254 187.62 257.174 184.203 259.303C182.961 260.076 181.903 261.105 180.855 262.125L177 265.878ZM144.898 263.716C148.193 259.967 153.52 258.307 158.467 258.961C163.415 259.615 167.94 262.403 171.228 266.158C171.807 266.819 172.375 267.77 171.905 268.514C171.512 269.137 170.572 269.182 169.926 268.828C169.363 268.52 168.96 267.999 168.565 267.486L168.562 267.483C168.528 267.439 168.493 267.394 168.458 267.349C168.436 267.32 168.413 267.292 168.391 267.263C165.481 263.561 160.726 261.388 156.022 261.609C151.319 261.832 146.79 264.443 144.241 268.402C143.578 267.825 143.39 266.834 143.589 265.977C143.789 265.12 144.317 264.377 144.898 263.716ZM193.367 253.896C193.29 254.733 194.395 255.253 195.19 254.979C195.905 254.733 196.403 254.115 196.883 253.52C196.936 253.454 196.989 253.388 197.042 253.323C201.465 247.914 209.888 246.284 216.009 249.653C216.812 248.975 216.858 247.674 216.321 246.771C215.784 245.867 214.803 245.313 213.801 244.993C211.633 244.3 209.278 244.536 207.047 244.988C201.766 246.056 196.432 248.56 193.655 253.177C193.521 253.4 193.391 253.636 193.367 253.896ZM166.279 272.949C168.311 272.172 170.435 271.597 172.605 271.446C177.975 271.073 183.463 273.485 186.819 277.692C185.39 278.715 183.507 277.471 182.037 276.501L182.022 276.491C177.333 273.394 170.925 273.117 165.985 275.797C165.6 276.007 165.211 276.234 164.819 276.464C162.971 277.546 161.051 278.671 159.062 278.107C160.706 275.589 163.471 274.024 166.279 272.949ZM181.522 270.089C182.364 269.65 183.12 269.072 183.875 268.493C184.597 267.94 185.319 267.387 186.117 266.955C188.366 265.739 191.168 265.598 193.527 266.584C194.215 266.871 194.861 267.246 195.507 267.621L195.508 267.621C196.064 267.944 196.621 268.267 197.205 268.534C198.467 269.112 199.971 269.412 201.228 268.824C201.367 268.758 201.512 268.672 201.571 268.53C201.666 268.299 201.496 268.049 201.332 267.861C198.517 264.648 194.108 262.908 189.858 263.332C185.609 263.756 181.63 266.334 179.506 270.039C179.95 270.623 180.872 270.428 181.522 270.089ZM150.065 269.08C149.586 269.504 149.107 269.927 148.553 270.242C147.671 270.744 146.483 270.912 145.685 270.285C145.439 268.959 146.777 267.929 147.943 267.248C150.816 265.572 153.904 263.84 157.227 264.011C159.886 264.148 162.312 265.495 164.608 266.841C165.172 267.172 165.751 267.52 166.137 268.048C166.523 268.576 166.667 269.338 166.307 269.884C165.943 270.435 165.176 270.598 164.531 270.448C163.911 270.304 163.374 269.931 162.85 269.567L162.789 269.525C160.932 268.235 158.906 267.046 156.66 266.786C154.645 266.551 152.544 267.119 150.931 268.35C150.633 268.578 150.352 268.827 150.07 269.076L150.069 269.077L150.069 269.077L150.068 269.078H150.068L150.067 269.078L150.067 269.079L150.066 269.08H150.065L150.065 269.08ZM163.517 257.363C164.117 258.139 165.291 257.307 165.953 256.583C167.993 254.355 170.934 252.975 173.952 252.829C176.97 252.685 180.028 253.776 182.272 255.8C182.319 255.841 182.364 255.883 182.41 255.925C182.936 256.404 183.497 256.914 184.197 256.933C184.959 256.954 185.645 255.891 185.041 255.427C181.806 252.941 178.042 250.91 173.971 250.642C169.901 250.373 165.513 252.2 163.628 255.818C163.376 256.303 163.183 256.931 163.517 257.363ZM200.669 255.765C200.32 256.125 199.967 256.489 199.509 256.682C198.972 256.909 198.234 256.8 197.975 256.278C197.701 255.726 198.083 255.082 198.482 254.613C202.4 250.004 209.773 248.809 214.945 251.945C215.738 252.426 216.569 253.358 216.103 254.158C215.544 255.119 214.097 254.505 213.135 253.949C209.29 251.724 203.984 252.429 200.851 255.579C200.79 255.64 200.73 255.703 200.669 255.765ZM202.368 256.978C202.146 257.164 201.924 257.372 201.831 257.647C201.57 258.413 202.5 259.129 203.307 259.065C203.891 259.019 204.412 258.734 204.932 258.45C205.13 258.341 205.329 258.233 205.531 258.137C207.316 257.296 209.46 257.496 211.272 258.278C211.325 258.301 211.379 258.326 211.432 258.35C211.55 258.402 211.667 258.457 211.784 258.511C212.325 258.763 212.867 259.016 213.454 259.104C214.226 259.22 215.126 258.964 215.478 258.267C212.409 254.462 206.12 253.844 202.368 256.978ZM155.213 255.281C154.919 255.692 154.294 255.733 153.835 255.518C153.41 255.319 153.091 254.955 152.779 254.6L152.708 254.519C150.557 252.079 147.768 250.205 144.696 249.134C143.899 248.856 142.885 248.303 143.11 247.488C145.315 246.735 147.809 247.326 149.789 248.555C151.769 249.784 153.319 251.587 154.759 253.419C155.185 253.96 155.614 254.721 155.213 255.281ZM180.981 257.562C177.356 255.25 172.408 255.21 168.745 257.462C168.109 257.853 167.455 258.403 167.405 259.149C167.356 259.895 168.368 260.587 168.871 260.033C170.894 257.803 174.591 257.34 177.102 259.003C178.334 259.82 180.104 259.708 181.225 258.744C181.755 258.688 181.43 257.849 180.981 257.562ZM193.669 276.315C197.408 272.755 202.201 269.724 207.352 270.072C207.882 270.108 208.592 270.554 208.272 270.977L195.499 276.505C194.87 276.777 193.942 276.944 193.669 276.315ZM158.329 272.366C158.454 272.437 158.58 272.514 158.705 272.59C159.213 272.9 159.727 273.213 160.311 273.214C161.039 273.215 161.761 272.338 161.299 271.775C159.845 270.002 157.559 268.941 155.266 268.976C152.972 269.012 150.72 270.141 149.32 271.958C149.493 272.618 150.301 272.923 150.976 272.824C151.463 272.753 151.908 272.536 152.353 272.318C152.525 272.234 152.698 272.15 152.873 272.074C154.605 271.323 156.687 271.435 158.329 272.366ZM184.898 272.749C184.388 272.777 183.813 272.389 183.871 271.882C183.893 271.695 183.995 271.527 184.102 271.373C185.283 269.674 187.417 268.807 189.486 268.788C191.554 268.768 193.564 269.501 195.39 270.472C195.9 270.744 196.473 271.175 196.391 271.746C195.545 272.647 194.143 272.163 192.922 271.742C192.786 271.696 192.653 271.65 192.522 271.606C190.489 270.931 188.179 271.143 186.302 272.177C186.238 272.212 186.173 272.249 186.108 272.286C185.724 272.504 185.334 272.726 184.898 272.749ZM180.027 249.626C182.156 250.388 184.139 251.556 185.838 253.049C185.956 253.153 186.073 253.259 186.19 253.365L186.191 253.365H186.192C186.77 253.886 187.353 254.412 188.058 254.731C188.908 255.114 190.011 255.124 190.676 254.471C189.205 253.342 187.996 251.873 187.171 250.212C186.727 249.318 185.544 249.153 184.546 249.105L180.171 248.891C180.017 249.098 179.963 249.376 180.027 249.626ZM162.199 253.38C161.824 253.856 161.449 254.333 161.007 254.746C160.254 255.449 159.216 255.965 158.21 255.743C159.232 253.263 160.884 251.046 162.968 249.358C164.456 248.153 166.609 248.417 168.495 248.745C168.596 249.426 167.72 249.767 167.054 249.945C165.511 250.357 164.09 251.218 163.011 252.397C162.725 252.71 162.461 253.045 162.199 253.38ZM144.237 253.892L148.293 256.535C148.866 256.908 149.596 257.29 150.19 256.952C150.741 256.639 150.825 255.831 150.538 255.266C150.251 254.701 149.703 254.322 149.177 253.968L145.875 251.745C144.953 251.124 143.451 250.629 142.95 251.621C142.517 252.476 143.434 253.369 144.237 253.892ZM174.604 265.236C173.946 265.551 173.222 264.996 172.704 264.482L171.016 262.807C170.818 262.61 170.603 262.37 170.638 262.093C170.66 261.918 170.778 261.772 170.9 261.645C172.486 259.986 175.498 260.031 177.033 261.738L175.274 264.517C175.097 264.798 174.904 265.092 174.604 265.236ZM149.045 277.729C150.144 278.115 151.442 278.229 152.411 277.584C150.952 275.905 149.241 274.444 147.353 273.266C146.817 272.932 146.214 272.609 145.589 272.698C144.964 272.787 144.411 273.497 144.713 274.052C145.642 275.751 147.216 277.088 149.045 277.729ZM210.929 262.35L209.37 264.234C209.222 264.412 209.058 264.602 208.831 264.651C208.488 264.726 208.176 264.454 207.929 264.205L205.666 261.912C205.333 261.575 205.429 260.972 205.759 260.633C206.09 260.294 206.58 260.166 207.05 260.11C208.281 259.961 209.555 260.215 210.635 260.822C210.946 260.997 211.272 261.253 211.286 261.609C211.297 261.889 211.108 262.134 210.929 262.35ZM155.149 250.669C155.615 251.171 156.2 251.684 156.883 251.628C157.59 251.569 158.065 250.949 158.533 250.34C159.033 249.688 159.524 249.048 160.28 249.119C160.672 248.473 159.602 247.955 158.845 247.943L152.97 247.85C153.609 248.853 154.339 249.797 155.149 250.669ZM179.464 278.14L167.243 278.193C167.375 277.561 168.087 277.257 168.711 277.088C171.498 276.333 174.462 276.243 177.288 276.829C178.151 277.008 179.107 277.335 179.464 278.14ZM192.395 273.906L188.352 274.089C187.917 274.109 187.358 274.235 187.304 274.667C187.281 274.86 187.378 275.046 187.471 275.216C187.828 275.864 188.207 276.536 188.823 276.944C189.439 277.351 190.367 277.392 190.846 276.83C191.011 276.636 191.108 276.394 191.204 276.154C191.322 275.858 191.439 275.565 191.681 275.368C191.841 275.236 192.036 275.165 192.232 275.093C192.382 275.038 192.532 274.984 192.667 274.902C192.98 274.712 193.178 274.222 192.889 274C192.753 273.895 192.566 273.899 192.395 273.906ZM156.955 274.443C157.516 274.804 157.856 275.599 157.496 276.161C157.065 276.834 156.527 277.576 155.731 277.654C154.706 277.756 153.971 276.723 153.471 275.82C153.301 275.513 153.125 275.174 153.188 274.829C153.32 274.103 154.29 273.968 155.026 274.004C155.692 274.037 156.394 274.081 156.955 274.443ZM210.739 268.078C211.344 268.129 211.886 267.718 212.31 267.285C213.605 265.961 214.428 264.186 214.602 262.343C214.174 262.069 213.649 262.494 213.321 262.882L210.015 266.792C209.623 267.255 210.134 268.028 210.739 268.078ZM145.984 259.388C145.118 259.856 143.932 259.615 143.318 258.846C142.703 258.077 142.729 256.867 143.377 256.126C143.467 256.023 143.574 255.924 143.708 255.897C143.902 255.857 144.09 255.974 144.254 256.086L145.862 257.182C146.233 257.435 146.635 257.734 146.713 258.176C146.801 258.672 146.427 259.148 145.984 259.388ZM190.917 250.728C191.56 251.268 192.514 250.71 193.153 250.164L195.232 248.387C194.84 248.012 194.213 248.097 193.682 248.207L189.053 249.164L190.917 250.728ZM97.328 210.011C96.8551 209.59 96.7341 208.903 96.7203 208.271C96.7042 207.557 96.7877 206.842 96.968 206.15L100.036 210.145C100.219 210.383 100.369 210.794 100.099 210.924C99.7155 210.667 99.2437 210.594 98.7749 210.522C98.245 210.439 97.7185 210.358 97.328 210.011ZM215.149 243.158C215.538 243.642 216.355 243.537 216.801 243.105C217.247 242.673 217.411 242.035 217.539 241.428C217.569 241.282 217.598 241.124 217.537 240.988C217.381 240.642 216.868 240.746 216.524 240.906C215.599 241.338 214.51 242.362 215.149 243.158ZM180.426 66.547C180.802 65.6087 181.676 64.9757 182.537 64.4469C185.135 62.8508 188.02 61.7242 191.012 61.1366C191.727 60.9961 192.58 60.9275 193.077 61.4615C193.636 62.0623 193.356 63.1019 192.736 63.6388C192.183 64.1174 191.456 64.3138 190.744 64.5057C190.657 64.5293 190.57 64.5529 190.484 64.5765C188.091 65.2389 185.84 66.4088 183.923 67.9864C183.186 68.593 182.312 69.3072 181.393 69.0514C180.419 68.7807 180.051 67.4847 180.426 66.547ZM126.612 66.7659C125.918 66.3897 125.448 65.4514 125.881 64.7902C126.132 64.406 126.601 64.2309 127.046 64.1174C130.653 63.2022 134.387 64.8184 137.65 66.6086C138.385 67.0113 139.14 67.4502 139.603 68.1483C140.067 68.847 140.134 69.8815 139.53 70.4615C138.519 71.4332 136.916 70.4338 135.774 69.6194C133.776 68.1938 131.374 67.339 128.923 67.1817C128.814 67.1748 128.704 67.1691 128.594 67.1633V67.1627C127.908 67.1264 127.21 67.0896 126.612 66.7659ZM164.424 118.48L162.052 111.713C159.94 113.238 158.362 115.486 157.645 117.99C156.997 117.463 156.973 116.571 156.949 115.695C156.942 115.434 156.935 115.173 156.912 114.925C156.772 113.45 155.845 112.072 154.532 111.387C153.218 110.701 151.558 110.727 150.268 111.455C150.61 112.205 151.417 112.443 152.247 112.687C152.798 112.85 153.36 113.016 153.803 113.336C154.74 114.013 155.007 115.289 155.022 116.444C155.026 116.733 155.018 117.025 155.011 117.317C154.988 118.189 154.967 119.064 155.239 119.886C155.327 120.151 155.452 120.416 155.666 120.594C156.275 121.101 157.197 120.68 157.813 120.183C159.205 119.06 160.3 117.572 160.958 115.909C161.537 116.488 161.751 117.301 161.964 118.108C162.026 118.345 162.088 118.582 162.16 118.811C162.474 119.823 163.225 120.905 164.284 120.856C164.99 120.823 165.558 120.292 166.057 119.793L168.928 116.926C169.274 116.58 169.649 116.141 169.538 115.664C169.431 115.207 168.889 114.963 168.424 115.028C167.959 115.094 167.562 115.387 167.199 115.683C166.179 116.515 165.248 117.454 164.424 118.48ZM157.868 91.3369C158.021 90.0968 158.105 88.6521 157.194 87.7968C155.494 86.2007 154.005 84.3805 152.778 82.3974C152.243 81.5328 151.74 80.5225 151.995 79.5381C152.38 78.0514 154.188 77.5135 155.712 77.328C158.152 77.0308 160.621 76.9807 163.07 77.1777C164.123 77.2623 165.239 77.4207 166.044 78.1033C166.849 78.7858 167.14 80.1705 166.363 80.8848C162.552 84.388 160.32 89.5484 160.378 94.7249C161.791 95.6419 163.228 96.5704 164.837 97.0664C166.447 97.5629 168.282 97.579 169.735 96.7248C170.346 96.3654 170.859 95.8735 171.373 95.3804C171.728 95.04 172.083 94.699 172.472 94.4006C173.423 93.6708 174.786 93.2187 175.806 93.85L171.926 97.4218C170.38 98.8456 168.46 100.377 166.413 99.8974C165.736 99.7384 165.141 99.3721 164.544 99.004C164.188 98.7851 163.832 98.5657 163.457 98.3894C161.453 97.4465 159.102 97.799 156.937 98.2639C156.807 98.2915 156.677 98.3197 156.545 98.3485L156.541 98.3491C154.497 98.7921 152.383 99.2505 150.377 98.6999C148.241 98.1141 146.368 95.8942 147.036 93.7832C148.381 95.7508 150.722 96.9978 153.105 97.0163C154.02 97.0232 154.964 96.8481 155.722 96.3354C157.273 95.2865 157.638 93.1962 157.868 91.3369Z" fill="#00160A"/>
</svg>
